<svg version="1.2" baseProfile="tiny-ps" xmlns="http://www.w3.org/2000/svg" viewBox="0 0 1268 900" width="1268" height="900">
	<title>2105</title>
	<defs>
		<linearGradient id="grd1" gradientUnits="userSpaceOnUse"  x1="642.3" y1="289" x2="649.9" y2="275.8">
			<stop offset="0" stop-color="#3e3e3e"  />
			<stop offset=".4" stop-color="#474747"  />
			<stop offset="1" stop-color="#4a4a4a"  />
		</linearGradient>
		<linearGradient id="grd2" gradientUnits="userSpaceOnUse"  x1="681.2" y1="325.5" x2="649.9" y2="271.3">
			<stop offset=".6" stop-color="#383838"  />
			<stop offset="1" stop-color="#3e3e3e"  />
		</linearGradient>
		<linearGradient id="grd3" gradientUnits="userSpaceOnUse"  x1="623.7" y1="321.1" x2="574.9" y2="236.6">
			<stop offset=".1" stop-color="#4a4a4a"  />
			<stop offset=".2" stop-color="#4a4a4a"  />
			<stop offset="1" stop-color="#383838"  />
		</linearGradient>
		<linearGradient id="grd4" gradientUnits="userSpaceOnUse"  x1="640.7" y1="348.7" x2="624.3" y2="320.3">
			<stop offset=".6" stop-color="#383838"  />
			<stop offset=".8" stop-color="#4a4a4a"  />
		</linearGradient>
		<linearGradient id="grd5" gradientUnits="userSpaceOnUse"  x1="524.5" y1="378.4" x2="475.7" y2="293.9">
			<stop offset=".1" stop-color="#4a4a4a"  />
			<stop offset=".2" stop-color="#4a4a4a"  />
			<stop offset="1" stop-color="#383838"  />
		</linearGradient>
		<linearGradient id="grd6" gradientUnits="userSpaceOnUse"  x1="541.5" y1="406" x2="525.2" y2="377.6">
			<stop offset=".6" stop-color="#383838"  />
			<stop offset=".8" stop-color="#4a4a4a"  />
		</linearGradient>
		<linearGradient id="grd7" gradientUnits="userSpaceOnUse"  x1="570" y1="258" x2="532.5" y2="192.9">
			<stop offset=".7" stop-color="#383838"  />
			<stop offset=".9" stop-color="#4a4a4a"  />
		</linearGradient>
		<linearGradient id="grd8" gradientUnits="userSpaceOnUse"  x1="470.8" y1="315.3" x2="433.3" y2="250.2">
			<stop offset=".7" stop-color="#383838"  />
			<stop offset=".9" stop-color="#4a4a4a"  />
		</linearGradient>
		<linearGradient id="grd9" gradientUnits="userSpaceOnUse"  x1="349.4" y1="390.8" x2="380.1" y2="337.6">
			<stop offset=".1" stop-color="#383838"  />
			<stop offset=".6" stop-color="#424242"  />
		</linearGradient>
		<linearGradient id="grd10" gradientUnits="userSpaceOnUse"  x1="410.2" y1="486.4" x2="438.1" y2="438">
			<stop offset=".1" stop-color="#424245"  />
			<stop offset=".9" stop-color="#3e3e3e"  />
		</linearGradient>
		<linearGradient id="grd11" gradientUnits="userSpaceOnUse"  x1="411.8" y1="423.2" x2="419.3" y2="410.2">
			<stop offset="0" stop-color="#3e3e3e"  />
			<stop offset=".4" stop-color="#474747"  />
			<stop offset="1" stop-color="#4a4a4a"  />
		</linearGradient>
		<linearGradient id="grd12" gradientUnits="userSpaceOnUse"  x1="450.4" y1="460.2" x2="419.1" y2="406">
			<stop offset=".6" stop-color="#383838"  />
			<stop offset="1" stop-color="#3e3e3e"  />
		</linearGradient>
		<clipPath clipPathUnits="userSpaceOnUse" id="cp1">
			<path d="m271.17 413.96c0 0 0.01 0 0.01 0c0 0 0 0-0.01 0c0 0 0 0-0.01 0z" />
		</clipPath>
		<clipPath clipPathUnits="userSpaceOnUse" id="cp2">
			<path d="m271.18 413.96c0 0 0 0 0 0.01c0 0 0 0-0.01 0c0 0 0 0 0.01 0z" />
		</clipPath>
		<clipPath clipPathUnits="userSpaceOnUse" id="cp3">
			<path d="m271.17 413.96c0 0 0 0 0-0.01c0 0 0 0 0.01 0c0 0 0 0-0.01 0z" />
		</clipPath>
		<clipPath clipPathUnits="userSpaceOnUse" id="cp4">
			<path d="m271.18 413.96c0 0-0.01 0-0.01 0c0 0 0 0 0.01 0c0 0 0 0 0.01 0z" />
		</clipPath>
		<clipPath clipPathUnits="userSpaceOnUse" id="cp5">
			<path d="m265.4 410.74c3.06-1.84 8.12-1.89 11.31-0.11c3.19 1.78 3.29 4.71 0.23 6.55c-3.06 1.84-8.12 1.89-11.31 0.11c-3.19-1.78-3.29-4.71-0.23-6.55c2.5 1.39 5.55 3.09 5.77 3.22c0 0 0 0 0 0.01c0 0 0.01 0 0.01 0c0 0 0 0 0-0.01c0 0-0.01 0-0.01 0c-0.22-0.12-3.27-1.82-5.77-3.22z" />
		</clipPath>
		<clipPath clipPathUnits="userSpaceOnUse" id="cp6">
			<path d="m287.02 391.03c-0.88-1.18-2.17-2.27-3.87-3.22c-6.87-3.83-17.77-3.72-24.36 0.25l1.97-2.83c5.55-3.34 14.74-3.43 20.53-0.21c1.43 0.8 2.51 1.72 3.26 2.71c0.83 1.1 1.65 2.2 2.47 3.29z" />
		</clipPath>
		<clipPath clipPathUnits="userSpaceOnUse" id="cp7">
			<path d="m257.95 387.67c0.67-0.88 1.6-1.7 2.82-2.43l-1.97 2.83c-1.44 0.87-2.55 1.84-3.34 2.88c0.83-1.09 1.66-2.19 2.49-3.28z" />
		</clipPath>
		<clipPath clipPathUnits="userSpaceOnUse" id="cp8">
			<path d="m288.23 408.37c-0.11 0.48-0.29 1.1-0.44 1.57c-0.09 0.27-0.25 0.63-0.37 0.89c-0.22 0.48-0.56 1.11-0.87 1.54c-0.17 0.24-0.38 0.57-0.57 0.8c-0.35 0.43-0.82 0.99-1.21 1.38c-0.21 0.21-0.5 0.5-0.74 0.69c-0.41 0.34-0.97 0.79-1.41 1.1c-0.3 0.22-0.72 0.48-1.03 0.67c-0.27 0.16-0.64 0.36-0.91 0.51c-0.27 0.15-0.64 0.33-0.92 0.45c-0.38 0.17-0.9 0.38-1.29 0.53c-0.74 0.28-1.67 0.55-2.09 0.65c-0.46 0.11-1.31 0.31-2.01 0.4c-0.3 0.04-0.69 0.1-0.99 0.12c-0.29 0.02-0.68 0.06-0.97 0.07c-0.29 0.02-0.68 0.03-0.97 0.03c-0.58-0.01-1.35-0.03-1.93-0.07c-0.29-0.02-0.68-0.06-0.97-0.1c-0.3-0.04-0.69-0.1-0.98-0.15c-0.29-0.05-0.68-0.13-0.96-0.19c-0.29-0.06-0.68-0.16-0.96-0.24c-0.64-0.17-1.49-0.46-2.13-0.71c-0.28-0.12-0.66-0.27-0.94-0.41c-0.37-0.18-0.87-0.41-1.22-0.62c-0.27-0.16-0.63-0.36-0.89-0.53c-0.39-0.26-0.91-0.61-1.29-0.9c-0.24-0.19-0.56-0.44-0.78-0.64c-0.38-0.35-0.88-0.83-1.23-1.21c-0.2-0.22-0.46-0.52-0.64-0.76c-0.32-0.43-0.73-1.02-1.01-1.48c-0.31-0.49-0.62-1.21-0.84-1.74c-0.2-0.48-0.39-1.15-0.49-1.67c-0.09-0.47-0.2-1.05-0.2-1.99c0-0.38 0-0.79 0-1.22c0-0.44 0-0.9 0-1.37c0-0.48 0-0.97 0-1.46c0-0.49 0-0.99 0-1.48c0-0.49 0-0.98 0-1.45c0-0.47 0-0.92 0-1.34c0-0.42 0-0.82 0-1.18c0-0.36 0-0.68 0-0.95c0-0.27 0-0.5 0-0.66c0-0.09 0-0.22 0-0.31c0.01-2.48 1.6-4.96 4.8-6.88c0 0.38-0.02 7.69-0.03 11.44c-0.01 3.75 4.11 9.83 6.64 11.23c-3.06 1.84-2.95 4.78 0.23 6.55c3.19 1.78 8.25 1.73 11.31-0.11c3.06-1.84 2.95-4.78-0.23-6.55c-3.19-1.78-8.25-1.73-11.31 0.11c-2.52-1.41-6.65-7.48-6.64-11.23c0.01-3.75 0.03-11.06 0.03-11.44c6.59-3.96 17.49-4.08 24.36-0.25c3.53 1.97 5.31 4.6 5.3 7.23c0 1.04-0.01 2.07-0.01 3.11c0 0.42 0 0.88 0 1.34c0 0.47 0 0.95 0 1.45c0 0.49 0 0.99 0 1.48c0 0.49 0 0.98 0 1.46c0 0.48 0 0.94 0 1.37c0 0.44 0 0.85 0 1.22c-0.03 0.57-0.06 1.33-0.19 1.88z" />
		</clipPath>
		<clipPath clipPathUnits="userSpaceOnUse" id="cp9">
			<path d="m283.66 401.93c-6.59 3.96-17.49 4.08-24.36 0.25c-5.37-2.99-6.68-7.51-3.85-11.23c0.83-1.09 1.66-2.19 2.49-3.28c-2.38 3.14-1.28 6.94 3.24 9.46c5.79 3.23 14.98 3.13 20.53-0.21c4.18-2.52 5.1-6.16 2.83-9.18c0.83 1.1 1.65 2.2 2.47 3.29c2.7 3.59 1.6 7.91-3.36 10.89z" />
		</clipPath>
		<clipPath clipPathUnits="userSpaceOnUse" id="cp10">
			<path d="m256.77 373.19c0.01-2.09 1.35-4.18 4.04-5.8l-0.05 17.85c-2.69 1.62-4.04 3.71-4.04 5.8c0.01-5.35 0.04-12.49 0.05-17.84z" />
		</clipPath>
		<clipPath clipPathUnits="userSpaceOnUse" id="cp11">
			<path d="m285.76 391.12c0.01-2.22-1.49-4.43-4.47-6.09c-5.79-3.23-14.98-3.13-20.53 0.21l0.05-17.85c5.55-3.34 14.74-3.43 20.53-0.21c2.98 1.66 4.47 3.88 4.47 6.09c-0.02 5.35-0.04 12.49-0.05 17.84z" />
		</clipPath>
		<clipPath clipPathUnits="userSpaceOnUse" id="cp12">
			<path d="m280.34 417.7c-0.27 0.14-0.65 0.31-0.93 0.43c-0.3 0.13-1.12 0.48-2.16 0.79c-1.08 0.32-1.94 0.48-1.95 0.48c-0.29 0.05-0.67 0.13-0.96 0.16c-0.29 0.04-0.68 0.09-0.97 0.12c-0.29 0.03-0.68 0.05-0.97 0.07c-0.29 0.02-0.68 0.03-0.97 0.03c-0.29 0-0.68-0.01-0.97-0.01c-0.29 0-0.68-0.04-0.97-0.05c-0.3-0.02-0.69-0.06-0.98-0.1c-0.29-0.04-0.68-0.1-0.97-0.14c-0.31-0.05-0.72-0.13-1.03-0.2c-0.34-0.08-0.78-0.19-1.11-0.28c-0.58-0.16-1.35-0.44-1.91-0.65c-0.38-0.14-0.87-0.37-1.23-0.54c-0.28-0.14-0.65-0.34-0.93-0.48c-0.42-0.22-0.96-0.55-1.34-0.83c-0.43-0.31-0.99-0.73-1.4-1.06c-0.24-0.19-0.53-0.47-0.75-0.68c-0.4-0.37-0.89-0.92-1.23-1.34c-0.37-0.46-0.82-1.11-1.12-1.61c-0.27-0.45-0.59-1.09-0.78-1.58c-0.11-0.3-0.26-0.7-0.35-1.01c-0.08-0.27-0.17-0.65-0.22-0.93c-0.11-0.56-0.15-1.32-0.18-1.88c0-0.38 0-0.79 0-1.22c0-0.44 0-0.9 0-1.37c0-0.48 0-0.97 0-1.46c0-0.49 0-0.99 0-1.48c0-0.49 0-0.98 0-1.45c0-0.47 0-0.92 0-1.34c0-0.42 0-0.82 0-1.18c0-0.36 0-0.68 0-0.95c0-0.27 0-0.5 0-0.66c0-0.1 0-0.21 0-0.31c-0.01 2.63 1.77 5.26 5.3 7.23c6.87 3.83 17.77 3.72 24.36-0.25c3.2-1.92 4.79-4.4 4.8-6.88c0 1.04-0.01 2.07-0.01 3.11c0 0.42 0 0.88 0 1.34c0 0.47 0 0.95 0 1.45c0 0.49 0 0.99 0 1.48c0 0.49 0 0.98 0 1.46c0 0.48 0 0.94 0 1.37c0 0.44 0 0.85 0 1.22c-0.02 0.48-0.06 1.13-0.14 1.61c-0.09 0.51-0.28 1.18-0.43 1.67c-0.09 0.3-0.51 1.39-1.21 2.47c-0.32 0.5-0.8 1.13-1.19 1.58c-0.34 0.4-0.85 0.89-1.23 1.25c-0.26 0.25-0.63 0.56-0.93 0.78c-0.5 0.37-1.18 0.84-1.7 1.17c-0.36 0.22-0.87 0.49-1.25 0.69z" />
		</clipPath>
		<clipPath clipPathUnits="userSpaceOnUse" id="cp13">
			<path d="m281.72 396.92c-5.55 3.34-14.74 3.43-20.53 0.21c-2.98-1.66-4.47-3.88-4.47-6.09l0.05-17.84c-0.01 2.22 1.49 4.43 4.47 6.09c5.79 3.23 14.98 3.13 20.53-0.21c2.69-1.62 4.04-3.71 4.04-5.8l-0.05 17.84c-0.01 2.09-1.35 4.18-4.04 5.8z" />
		</clipPath>
		<linearGradient id="grd13" gradientUnits="userSpaceOnUse"  x1="641.8" y1="99" x2="710.1" y2="99">
			<stop offset="0" stop-color="#cacddd"  />
			<stop offset=".3" stop-color="#cacddd"  />
			<stop offset=".6" stop-color="#f5f0f0"  />
			<stop offset=".9" stop-color="#f5f0f0"  />
		</linearGradient>
		<linearGradient id="grd14" gradientUnits="userSpaceOnUse"  x1="641.8" y1="65.6" x2="710.2" y2="65.6">
			<stop offset="0" stop-color="#cacddd"  />
			<stop offset=".3" stop-color="#cacddd"  />
			<stop offset=".6" stop-color="#f5f0f0"  />
			<stop offset=".9" stop-color="#f5f0f0"  />
		</linearGradient>
	</defs>
	<style>
		tspan { white-space:pre }
		.s0 { fill: #f0c6a3 } 
		.s1 { fill: #ffd9ba } 
		.s2 { fill: #e3748e } 
		.s3 { fill: #e84a64 } 
		.s4 { fill: #db3b50 } 
		.s5 { mix-blend-mode: multiply;fill: #d1d7ff } 
		.s6 { fill: #cc5d23 } 
		.s7 { fill: #a85125 } 
		.s8 { fill: #e0763d } 
		.s9 { fill: #ffd6bf } 
		.s10 { fill: #975b32 } 
		.s11 { fill: #9e6e57 } 
		.s12 { fill: #a36445 } 
		.s13 { fill: #6791f5 } 
		.s14 { fill: #2e2e2e } 
		.s15 { fill: #3e3e3e } 
		.s16 { fill: url(#grd1) } 
		.s17 { fill: url(#grd2) } 
		.s18 { fill: #abd4ff } 
		.s19 { fill: url(#grd3) } 
		.s20 { fill: url(#grd4) } 
		.s21 { fill: url(#grd5) } 
		.s22 { fill: url(#grd6) } 
		.s23 { fill: #474747 } 
		.s24 { fill: url(#grd7) } 
		.s25 { fill: url(#grd8) } 
		.s26 { fill: url(#grd9) } 
		.s27 { fill: url(#grd10) } 
		.s28 { fill: url(#grd11) } 
		.s29 { fill: url(#grd12) } 
		.s30 { fill: #907563 } 
		.s31 { fill: #0a181d } 
		.s32 { fill: #7b6454 } 
		.s33 { fill: #1f2c31 } 
		.s34 { fill: #ff9999 } 
		.s35 { fill: #f0834a } 
		.s36 { fill: #30c8ff } 
		.s37 { fill: #66d6ff } 
		.s38 { fill: #3d3d3d } 
		.s39 { fill: #727272 } 
		.s40 { fill: #838383 } 
		.s41 { fill: #494969 } 
		.s42 { fill: #383838 } 
		.s43 { fill: #00c2ff } 
		.s44 { mix-blend-mode: multiply;fill: #b7b7c9 } 
		.s45 { fill: #363636 } 
		.s46 { fill: #ffa698 } 
		.s47 { fill: #ff425a } 
		.s48 { fill: #724a40 } 
		.s49 { fill: #6052ff } 
		.s50 { fill: #6e61ff } 
		.s51 { fill: #f12e47 } 
		.s52 { fill: #eb8170 } 
		.s53 { fill: #32364c } 
		.s54 { fill: #7569ff } 
		.s55 { fill: #4a4a4a } 
		.s56 { fill: #4c3241 } 
		.s57 { fill: #9e4110 } 
		.s58 { fill: #89705e } 
		.s59 { fill: #917764 } 
		.s60 { fill: #b6704d } 
		.s61 { fill: #c4a087 } 
		.s62 { fill: url(#grd13) } 
		.s63 { fill: url(#grd14) } 
		.s64 { fill: #f5f0f0 } 
		.s65 { fill: #cacddd } 
		.s66 { fill: #78473a } 
		.s67 { fill: #c9c9d4 } 
		.s68 { fill: #e3e5ef } 
		.s69 { fill: #e6deff } 
		.s70 { fill: #fbf9ff } 
		.s71 { fill: #ffffff } 
		.s72 { mix-blend-mode: multiply;fill: #b6b3c1 } 
		.s73 { fill: #e1e1e1 } 
		.s74 { fill: #f2f2f3 } 
		.s75 { fill: #cccccc } 
		.s76 { fill: #e5e5e7 } 
		.s77 { fill: #c4c4c4 } 
		.s78 { fill: #ebebeb } 
		.s79 { fill: #4295d9 } 
		.s80 { fill: #c2c2c4 } 
		.s81 { fill: #00a7cf } 
		.s82 { fill: #00e7f4 } 
		.s83 { fill: #a4a4a9 } 
		.s84 { fill: #f9811f } 
		.s85 { fill: #f6f6f7 } 
		.s86 { fill: #4da9ff } 
		.s87 { fill: #6abcff } 
		.s88 { fill: #33eaff } 
		.s89 { opacity: .4;fill: #4da9ff } 
		.s90 { fill: #b3e2ff } 
		.s91 { fill: #f5f5f5 } 
		.s92 { fill: #754735 } 
		.s93 { fill: #7c7c7c } 
		.s94 { fill: #7e523b } 
		.s95 { fill: #497d2e } 
		.s96 { fill: #51822f } 
		.s97 { fill: #64963b } 
		.s98 { fill: #5f8a3b } 
	</style>
	<g id="Layer 1">
		<g id="&lt;Group&gt;">
			<g id="&lt;Group&gt;">
				<g id="&lt;Group&gt;">
					<path id="&lt;Path&gt;" class="s0" d="m708.94 222.49l-41.17 34.86l-45.66-26.36v-11.1l41.17-23.76l45.66 26.36z" />
					<path id="&lt;Path&gt;" class="s1" d="m708.94 222.49l-41.17 23.76l-45.66-26.36l41.17-23.76l45.66 26.36z" />
					<path id="&lt;Path&gt;" class="s0" d="m708.94 233.59l-41.17 23.76v-11.1l41.17-23.76v11.1z" />
				</g>
				<g id="&lt;Group&gt;">
					<path id="&lt;Path&gt;" class="s0" d="m665.94 247.31l-147.71 96.36l-45.66-26.36v-11.1l147.71-85.26l45.66 26.36z" />
					<path id="&lt;Path&gt;" class="s1" d="m665.94 247.31l-147.71 85.26l-45.66-26.36l147.71-85.26l45.66 26.36z" />
					<path id="&lt;Path&gt;" class="s0" d="m665.94 258.41l-147.71 85.26v-11.1l147.71-85.26v11.1z" />
				</g>
				<g id="&lt;Group&gt;">
					<path id="&lt;Path&gt;" class="s0" d="m516.41 333.62l-147.71 96.36l-45.66-26.36v-11.1l147.71-85.26l45.66 26.36z" />
					<path id="&lt;Path&gt;" class="s1" d="m516.41 333.62l-147.71 85.26l-45.66-26.36l147.71-85.26l45.66 26.36z" />
					<path id="&lt;Path&gt;" class="s0" d="m516.41 344.72l-147.71 85.26v-11.1l147.71-85.26v11.1z" />
				</g>
				<g id="&lt;Group&gt;">
					<path id="&lt;Path&gt;" class="s0" d="m366.87 419.93l-147.71 96.36l-45.66-26.36v-11.1l147.71-85.26l45.66 26.36z" />
					<path id="&lt;Path&gt;" class="s1" d="m366.87 419.93l-147.71 85.26l-45.66-26.36l147.71-85.26l45.66 26.36z" />
					<path id="&lt;Path&gt;" class="s0" d="m366.87 431.03l-147.71 85.26v-11.1l147.71-85.26v11.1z" />
				</g>
				<g id="&lt;Group&gt;">
					<path id="&lt;Path&gt;" class="s0" d="m217.34 506.25l-147.71 96.36l-45.66-26.36v-11.1l147.71-85.26l45.66 26.36z" />
					<path id="&lt;Path&gt;" class="s1" d="m217.34 506.25l-147.71 85.26l-45.66-26.36l147.71-85.26l45.66 26.36z" />
					<path id="&lt;Path&gt;" class="s0" d="m217.34 517.35l-147.71 85.26v-11.1l147.71-85.26v11.1z" />
				</g>
				<g id="&lt;Group&gt;">
					<path id="&lt;Path&gt;" class="s0" d="m757.33 250.43l-135.9 89.55l-45.66-26.36v-11.1l135.9-78.45l45.66 26.36z" />
					<path id="&lt;Path&gt;" class="s1" d="m757.33 250.43l-135.91 78.45l-45.66-26.36l135.91-78.44l45.66 26.35z" />
					<path id="&lt;Path&gt;" class="s0" d="m757.33 261.53l-135.9 78.45v-11.1l135.9-78.45v11.1z" />
				</g>
				<g id="&lt;Group&gt;">
					<path id="&lt;Path&gt;" class="s0" d="m619.6 329.93l-147.71 96.36l-45.66-26.36v-11.1l147.71-85.26l45.66 26.36z" />
					<path id="&lt;Path&gt;" class="s1" d="m619.6 329.93l-147.71 85.26l-45.66-26.36l147.71-85.26l45.66 26.36z" />
					<path id="&lt;Path&gt;" class="s0" d="m619.6 341.03l-147.71 85.26v-11.1l147.71-85.26v11.1z" />
				</g>
				<g id="&lt;Group&gt;">
					<path id="&lt;Path&gt;" class="s0" d="m470.06 416.24l-147.71 96.36l-45.66-26.36v-11.1l147.71-85.26l45.66 26.36z" />
					<path id="&lt;Path&gt;" class="s1" d="m470.06 416.24l-147.71 85.26l-45.66-26.36l147.71-85.26l45.66 26.36z" />
					<path id="&lt;Path&gt;" class="s0" d="m470.06 427.34l-147.71 85.26v-11.1l147.71-85.26v11.1z" />
				</g>
				<g id="&lt;Group&gt;">
					<path id="&lt;Path&gt;" class="s0" d="m320.53 502.56l-147.71 96.36l-45.66-26.36v-11.1l147.71-85.26l45.66 26.36z" />
					<path id="&lt;Path&gt;" class="s1" d="m320.53 502.56l-147.71 85.26l-45.66-26.36l147.71-85.26l45.66 26.36z" />
					<path id="&lt;Path&gt;" class="s0" d="m320.53 513.66l-147.71 85.26v-11.1l147.71-85.26v11.1z" />
				</g>
			</g>
			<g id="&lt;Group&gt;">
				<g id="&lt;Group&gt;">
					<path id="&lt;Path&gt;" class="s0" d="m805.74 278.38l-41.17 34.86l-45.66-26.36v-11.1l41.17-23.76l45.66 26.36z" />
					<path id="&lt;Path&gt;" class="s1" d="m805.74 278.38l-41.17 23.76l-45.66-26.36l41.17-23.76l45.66 26.36z" />
					<path id="&lt;Path&gt;" class="s0" d="m805.74 289.48l-41.17 23.76v-11.1l41.17-23.76v11.1z" />
				</g>
				<g id="&lt;Group&gt;">
					<path id="&lt;Path&gt;" class="s0" d="m762.74 303.19l-147.71 96.36l-45.66-26.36v-11.1l147.71-85.26l45.66 26.36z" />
					<path id="&lt;Path&gt;" class="s1" d="m762.74 303.19l-147.71 85.26l-45.66-26.36l147.71-85.26l45.66 26.36z" />
					<path id="&lt;Path&gt;" class="s0" d="m762.74 314.29l-147.71 85.26v-11.1l147.71-85.26v11.1z" />
				</g>
				<g id="&lt;Group&gt;">
					<path id="&lt;Path&gt;" class="s0" d="m613.21 389.5l-147.71 96.36l-45.66-26.36v-11.1l147.71-85.26l45.66 26.36z" />
					<path id="&lt;Path&gt;" class="s1" d="m613.21 389.5l-147.71 85.26l-45.66-26.36l147.71-85.26l45.66 26.36z" />
					<path id="&lt;Path&gt;" class="s0" d="m613.21 400.61l-147.71 85.26v-11.1l147.71-85.26v11.1z" />
				</g>
				<g id="&lt;Group&gt;">
					<path id="&lt;Path&gt;" class="s0" d="m463.67 475.82l-147.71 96.36l-45.66-26.36v-11.1l147.71-85.26l45.66 26.36z" />
					<path id="&lt;Path&gt;" class="s1" d="m463.67 475.82l-147.71 85.26l-45.66-26.36l147.71-85.26l45.66 26.36z" />
					<path id="&lt;Path&gt;" class="s0" d="m463.67 486.92l-147.71 85.26v-11.1l147.71-85.26v11.1z" />
				</g>
				<g id="&lt;Group&gt;">
					<path id="&lt;Path&gt;" class="s0" d="m314.14 562.13l-147.71 96.36l-45.66-26.36v-11.1l147.71-85.26l45.66 26.36z" />
					<path id="&lt;Path&gt;" class="s1" d="m314.14 562.13l-147.71 85.26l-45.66-26.36l147.71-85.26l45.66 26.36z" />
					<path id="&lt;Path&gt;" class="s0" d="m314.14 573.23l-147.71 85.26v-11.1l147.71-85.26v11.1z" />
				</g>
				<g id="&lt;Group&gt;">
					<path id="&lt;Path&gt;" class="s0" d="m854.13 306.31l-135.9 89.55l-45.66-26.36v-11.1l135.9-78.45l45.66 26.36z" />
					<path id="&lt;Path&gt;" class="s1" d="m854.13 306.31l-135.91 78.45l-45.66-26.36l135.91-78.44l45.66 26.35z" />
					<path id="&lt;Path&gt;" class="s0" d="m854.13 317.41l-135.9 78.45v-11.1l135.9-78.45v11.1z" />
				</g>
				<g id="&lt;Group&gt;">
					<path id="&lt;Path&gt;" class="s0" d="m716.4 385.81l-147.71 96.36l-45.66-26.36v-11.1l147.71-85.26l45.66 26.36z" />
					<path id="&lt;Path&gt;" class="s1" d="m716.4 385.81l-147.71 85.26l-45.66-26.36l147.71-85.26l45.66 26.36z" />
					<path id="&lt;Path&gt;" class="s0" d="m716.4 396.91l-147.71 85.26v-11.1l147.71-85.26v11.1z" />
				</g>
				<g id="&lt;Group&gt;">
					<path id="&lt;Path&gt;" class="s0" d="m566.86 472.13l-147.71 96.36l-45.66-26.36v-11.1l147.71-85.26l45.66 26.36z" />
					<path id="&lt;Path&gt;" class="s1" d="m566.86 472.13l-147.71 85.26l-45.66-26.36l147.71-85.26l45.66 26.36z" />
					<path id="&lt;Path&gt;" class="s0" d="m566.86 483.23l-147.71 85.26v-11.1l147.71-85.26v11.1z" />
				</g>
				<g id="&lt;Group&gt;">
					<path id="&lt;Path&gt;" class="s0" d="m417.33 558.44l-147.71 96.36l-45.66-26.36v-11.1l147.71-85.26l45.66 26.36z" />
					<path id="&lt;Path&gt;" class="s1" d="m417.33 558.44l-147.71 85.26l-45.66-26.36l147.71-85.26l45.66 26.36z" />
					<path id="&lt;Path&gt;" class="s0" d="m417.33 569.54l-147.71 85.26v-11.1l147.71-85.26v11.1z" />
				</g>
			</g>
			<g id="&lt;Group&gt;">
				<g id="&lt;Group&gt;">
					<path id="&lt;Path&gt;" class="s0" d="m902.53 334.26l-41.17 34.86l-45.66-26.36v-11.1l41.17-23.76l45.66 26.36z" />
					<path id="&lt;Path&gt;" class="s1" d="m902.53 334.26l-41.17 23.76l-45.66-26.36l41.17-23.76l45.66 26.36z" />
					<path id="&lt;Path&gt;" class="s0" d="m902.53 345.36l-41.17 23.76v-11.1l41.17-23.76v11.1z" />
				</g>
				<g id="&lt;Group&gt;">
					<path id="&lt;Path&gt;" class="s0" d="m859.54 359.08l-147.71 96.36l-45.66-26.36v-11.1l147.71-85.26l45.66 26.36z" />
					<path id="&lt;Path&gt;" class="s1" d="m859.54 359.08l-147.71 85.26l-45.66-26.36l147.71-85.26l45.66 26.36z" />
					<path id="&lt;Path&gt;" class="s0" d="m859.54 370.18l-147.71 85.26v-11.1l147.71-85.26v11.1z" />
				</g>
				<g id="&lt;Group&gt;">
					<path id="&lt;Path&gt;" class="s0" d="m710 445.39l-147.71 96.36l-45.66-26.36v-11.1l147.71-85.26l45.66 26.36z" />
					<path id="&lt;Path&gt;" class="s1" d="m710 445.39l-147.71 85.26l-45.66-26.36l147.71-85.26l45.66 26.36z" />
					<path id="&lt;Path&gt;" class="s0" d="m710 456.49l-147.71 85.26v-11.1l147.71-85.26v11.1z" />
				</g>
				<g id="&lt;Group&gt;">
					<path id="&lt;Path&gt;" class="s0" d="m560.47 531.7l-147.71 96.36l-45.66-26.36v-11.1l147.71-85.26l45.66 26.36z" />
					<path id="&lt;Path&gt;" class="s1" d="m560.47 531.7l-147.71 85.26l-45.66-26.36l147.71-85.26l45.66 26.36z" />
					<path id="&lt;Path&gt;" class="s0" d="m560.47 542.8l-147.71 85.26v-11.1l147.71-85.26v11.1z" />
				</g>
				<g id="&lt;Group&gt;">
					<path id="&lt;Path&gt;" class="s0" d="m410.93 618.02l-147.71 96.36l-45.66-26.36v-11.1l147.71-85.26l45.66 26.36z" />
					<path id="&lt;Path&gt;" class="s1" d="m410.93 618.02l-147.71 85.26l-45.66-26.36l147.71-85.26l45.66 26.36z" />
					<path id="&lt;Path&gt;" class="s0" d="m410.93 629.12l-147.71 85.26v-11.1l147.71-85.26v11.1z" />
				</g>
				<g id="&lt;Group&gt;">
					<path id="&lt;Path&gt;" class="s0" d="m950.92 362.2l-135.9 89.55l-45.66-26.36v-11.1l135.9-78.45l45.66 26.36z" />
					<path id="&lt;Path&gt;" class="s1" d="m950.92 362.2l-135.91 78.45l-45.66-26.36l135.91-78.44l45.66 26.36z" />
					<path id="&lt;Path&gt;" class="s0" d="m950.92 373.3l-135.9 78.45v-11.1l135.9-78.45v11.1z" />
				</g>
				<g id="&lt;Group&gt;">
					<path id="&lt;Path&gt;" class="s0" d="m813.19 441.7l-147.71 96.36l-45.66-26.36v-11.1l147.71-85.26l45.66 26.36z" />
					<path id="&lt;Path&gt;" class="s1" d="m813.19 441.7l-147.71 85.26l-45.66-26.36l147.71-85.26l45.66 26.36z" />
					<path id="&lt;Path&gt;" class="s0" d="m813.19 452.8l-147.71 85.26v-11.1l147.71-85.26v11.1z" />
				</g>
				<g id="&lt;Group&gt;">
					<path id="&lt;Path&gt;" class="s0" d="m663.66 528.01l-147.71 96.36l-45.66-26.36v-11.1l147.71-85.26l45.66 26.36z" />
					<path id="&lt;Path&gt;" class="s1" d="m663.66 528.01l-147.71 85.26l-45.66-26.36l147.71-85.26l45.66 26.36z" />
					<path id="&lt;Path&gt;" class="s0" d="m663.66 539.11l-147.71 85.26v-11.1l147.71-85.26v11.1z" />
				</g>
				<g id="&lt;Group&gt;">
					<path id="&lt;Path&gt;" class="s0" d="m514.12 614.33l-147.71 96.36l-45.66-26.36v-11.1l147.71-85.26l45.66 26.36z" />
					<path id="&lt;Path&gt;" class="s1" d="m514.12 614.33l-147.71 85.26l-45.66-26.36l147.71-85.26l45.66 26.36z" />
					<path id="&lt;Path&gt;" class="s0" d="m514.12 625.43l-147.71 85.26v-11.1l147.71-85.26v11.1z" />
				</g>
			</g>
			<g id="&lt;Group&gt;">
				<g id="&lt;Group&gt;">
					<path id="&lt;Path&gt;" class="s0" d="m999.33 390.15l-41.17 34.86l-45.66-26.36v-11.1l41.17-23.76l45.66 26.36z" />
					<path id="&lt;Path&gt;" class="s1" d="m999.33 390.15l-41.17 23.76l-45.66-26.36l41.17-23.76l45.66 26.36z" />
					<path id="&lt;Path&gt;" class="s0" d="m999.33 401.25l-41.17 23.76v-11.1l41.17-23.76v11.1z" />
				</g>
				<g id="&lt;Group&gt;">
					<path id="&lt;Path&gt;" class="s0" d="m956.34 414.96l-147.71 96.36l-45.66-26.36v-11.1l147.71-85.26l45.66 26.36z" />
					<path id="&lt;Path&gt;" class="s1" d="m956.34 414.96l-147.71 85.26l-45.66-26.36l147.71-85.26l45.66 26.36z" />
					<path id="&lt;Path&gt;" class="s0" d="m956.34 426.06l-147.71 85.26v-11.1l147.71-85.26v11.1z" />
				</g>
				<g id="&lt;Group&gt;">
					<path id="&lt;Path&gt;" class="s0" d="m806.8 501.28l-147.71 96.36l-45.66-26.36v-11.1l147.71-85.26l45.66 26.36z" />
					<path id="&lt;Path&gt;" class="s1" d="m806.8 501.28l-147.71 85.26l-45.66-26.36l147.71-85.26l45.66 26.36z" />
					<path id="&lt;Path&gt;" class="s0" d="m806.8 512.38l-147.71 85.26v-11.1l147.71-85.26v11.1z" />
				</g>
				<g id="&lt;Group&gt;">
					<path id="&lt;Path&gt;" class="s0" d="m657.27 587.59l-147.71 96.36l-45.66-26.36v-11.1l147.71-85.26l45.66 26.36z" />
					<path id="&lt;Path&gt;" class="s1" d="m657.27 587.59l-147.71 85.26l-45.66-26.36l147.71-85.26l45.66 26.36z" />
					<path id="&lt;Path&gt;" class="s0" d="m657.27 598.69l-147.71 85.26v-11.1l147.71-85.26v11.1z" />
				</g>
				<g id="&lt;Group&gt;">
					<path id="&lt;Path&gt;" class="s0" d="m507.73 673.9l-147.71 96.36l-45.66-26.36v-11.1l147.71-85.26l45.66 26.36z" />
					<path id="&lt;Path&gt;" class="s1" d="m507.73 673.9l-147.71 85.26l-45.66-26.36l147.71-85.26l45.66 26.36z" />
					<path id="&lt;Path&gt;" class="s0" d="m507.73 685l-147.71 85.26v-11.1l147.71-85.26v11.1z" />
				</g>
				<g id="&lt;Group&gt;">
					<path id="&lt;Path&gt;" class="s0" d="m1047.72 418.08l-135.9 89.55l-45.66-26.36v-11.1l135.9-78.45l45.66 26.36z" />
					<path id="&lt;Path&gt;" class="s1" d="m1047.72 418.08l-135.91 78.45l-45.66-26.36l135.91-78.44l45.66 26.36z" />
					<path id="&lt;Path&gt;" class="s0" d="m1047.72 429.18l-135.9 78.45v-11.1l135.9-78.45v11.1z" />
				</g>
				<g id="&lt;Group&gt;">
					<path id="&lt;Path&gt;" class="s0" d="m909.99 497.59l-147.71 96.36l-45.66-26.36v-11.1l147.71-85.26l45.66 26.36z" />
					<path id="&lt;Path&gt;" class="s1" d="m909.99 497.59l-147.71 85.26l-45.66-26.36l147.71-85.26l45.66 26.36z" />
					<path id="&lt;Path&gt;" class="s0" d="m909.99 508.69l-147.71 85.26v-11.1l147.71-85.26v11.1z" />
				</g>
				<g id="&lt;Group&gt;">
					<path id="&lt;Path&gt;" class="s0" d="m760.46 583.9l-147.71 96.36l-45.66-26.36v-11.1l147.71-85.26l45.66 26.36z" />
					<path id="&lt;Path&gt;" class="s1" d="m760.46 583.9l-147.71 85.26l-45.66-26.36l147.71-85.26l45.66 26.36z" />
					<path id="&lt;Path&gt;" class="s0" d="m760.46 595l-147.71 85.26v-11.1l147.71-85.26v11.1z" />
				</g>
				<g id="&lt;Group&gt;">
					<path id="&lt;Path&gt;" class="s0" d="m610.92 670.21l-147.71 96.36l-45.66-26.36v-11.1l147.71-85.26l45.66 26.36z" />
					<path id="&lt;Path&gt;" class="s1" d="m610.92 670.21l-147.71 85.26l-45.66-26.36l147.71-85.26l45.66 26.36z" />
					<path id="&lt;Path&gt;" class="s0" d="m610.92 681.31l-147.71 85.26v-11.1l147.71-85.26v11.1z" />
				</g>
			</g>
			<g id="&lt;Group&gt;">
				<g id="&lt;Group&gt;">
					<path id="&lt;Path&gt;" class="s0" d="m1096.13 446.03l-41.17 34.86l-45.66-26.36v-11.1l41.17-23.76l45.66 26.36z" />
					<path id="&lt;Path&gt;" class="s1" d="m1096.13 446.03l-41.17 23.76l-45.66-26.36l41.17-23.76l45.66 26.36z" />
					<path id="&lt;Path&gt;" class="s0" d="m1096.13 457.14l-41.17 23.76v-11.1l41.17-23.76v11.1z" />
				</g>
				<g id="&lt;Group&gt;">
					<path id="&lt;Path&gt;" class="s0" d="m1053.13 470.85l-147.71 96.36l-45.66-26.36v-11.1l147.71-85.26l45.66 26.36z" />
					<path id="&lt;Path&gt;" class="s1" d="m1053.13 470.85l-147.71 85.26l-45.66-26.36l147.71-85.26l45.66 26.36z" />
					<path id="&lt;Path&gt;" class="s0" d="m1053.13 481.95l-147.71 85.26v-11.1l147.71-85.26v11.1z" />
				</g>
				<g id="&lt;Group&gt;">
					<path id="&lt;Path&gt;" class="s0" d="m903.6 557.16l-147.71 96.36l-45.66-26.36v-11.1l147.71-85.26l45.66 26.36z" />
					<path id="&lt;Path&gt;" class="s1" d="m903.6 557.16l-147.71 85.26l-45.66-26.36l147.71-85.26l45.66 26.36z" />
					<path id="&lt;Path&gt;" class="s0" d="m903.6 568.26l-147.71 85.26v-11.1l147.71-85.26v11.1z" />
				</g>
				<g id="&lt;Group&gt;">
					<path id="&lt;Path&gt;" class="s0" d="m754.06 643.48l-147.71 96.36l-45.66-26.36v-11.1l147.71-85.26l45.66 26.36z" />
					<path id="&lt;Path&gt;" class="s1" d="m754.06 643.48l-147.71 85.26l-45.66-26.36l147.71-85.26l45.66 26.36z" />
					<path id="&lt;Path&gt;" class="s0" d="m754.06 654.58l-147.71 85.26v-11.1l147.71-85.26v11.1z" />
				</g>
				<g id="&lt;Group&gt;">
					<path id="&lt;Path&gt;" class="s0" d="m604.53 729.79l-147.71 96.36l-45.66-26.36v-11.1l147.71-85.26l45.66 26.36z" />
					<path id="&lt;Path&gt;" class="s1" d="m604.53 729.79l-147.71 85.26l-45.66-26.36l147.71-85.26l45.66 26.36z" />
					<path id="&lt;Path&gt;" class="s0" d="m604.53 740.89l-147.71 85.26v-11.1l147.71-85.26v11.1z" />
				</g>
				<g id="&lt;Group&gt;">
					<path id="&lt;Path&gt;" class="s0" d="m1144.52 473.97l-135.9 89.55l-45.66-26.36v-11.1l135.9-78.45l45.66 26.36z" />
					<path id="&lt;Path&gt;" class="s1" d="m1144.52 473.97l-135.91 78.45l-45.66-26.36l135.91-78.44l45.66 26.35z" />
					<path id="&lt;Path&gt;" class="s0" d="m1144.52 485.07l-135.9 78.45v-11.1l135.9-78.45v11.1z" />
				</g>
				<g id="&lt;Group&gt;">
					<path id="&lt;Path&gt;" class="s0" d="m1006.79 553.47l-147.71 96.36l-45.66-26.36v-11.1l147.71-85.26l45.66 26.36z" />
					<path id="&lt;Path&gt;" class="s1" d="m1006.79 553.47l-147.71 85.26l-45.66-26.36l147.71-85.26l45.66 26.36z" />
					<path id="&lt;Path&gt;" class="s0" d="m1006.79 564.57l-147.71 85.26v-11.1l147.71-85.26v11.1z" />
				</g>
				<g id="&lt;Group&gt;">
					<path id="&lt;Path&gt;" class="s0" d="m857.25 639.79l-147.71 96.36l-45.66-26.36v-11.1l147.71-85.26l45.66 26.36z" />
					<path id="&lt;Path&gt;" class="s1" d="m857.25 639.79l-147.71 85.26l-45.66-26.36l147.71-85.26l45.66 26.36z" />
					<path id="&lt;Path&gt;" class="s0" d="m857.25 650.89l-147.71 85.26v-11.1l147.71-85.26v11.1z" />
				</g>
				<g id="&lt;Group&gt;">
					<path id="&lt;Path&gt;" class="s0" d="m707.72 726.1l-147.71 96.36l-45.66-26.36v-11.1l147.71-85.26l45.66 26.36z" />
					<path id="&lt;Path&gt;" class="s1" d="m707.72 726.1l-147.71 85.26l-45.66-26.36l147.71-85.26l45.66 26.36z" />
					<path id="&lt;Path&gt;" class="s0" d="m707.72 737.2l-147.71 85.26v-11.1l147.71-85.26v11.1z" />
				</g>
			</g>
			<g id="&lt;Group&gt;">
				<g id="&lt;Group&gt;">
					<path id="&lt;Path&gt;" class="s0" d="m1192.93 501.92l-41.17 34.86l-45.66-26.36v-11.1l41.17-23.76l45.66 26.36z" />
					<path id="&lt;Path&gt;" class="s1" d="m1192.93 501.92l-41.17 23.76l-45.66-26.36l41.17-23.76l45.66 26.36z" />
					<path id="&lt;Path&gt;" class="s0" d="m1192.93 513.02l-41.17 23.76v-11.1l41.17-23.76v11.1z" />
				</g>
				<g id="&lt;Group&gt;">
					<path id="&lt;Path&gt;" class="s0" d="m1149.93 526.74l-147.71 96.36l-45.66-26.36v-11.1l147.71-85.26l45.66 26.36z" />
					<path id="&lt;Path&gt;" class="s1" d="m1149.93 526.74l-147.71 85.26l-45.66-26.36l147.71-85.26l45.66 26.36z" />
					<path id="&lt;Path&gt;" class="s0" d="m1149.93 537.83l-147.71 85.26v-11.1l147.71-85.26v11.1z" />
				</g>
				<g id="&lt;Group&gt;">
					<path id="&lt;Path&gt;" class="s0" d="m1000.4 613.05l-147.71 96.36l-45.66-26.36v-11.1l147.71-85.26l45.66 26.36z" />
					<path id="&lt;Path&gt;" class="s0" d="m850.86 699.36l-147.71 96.36l-45.66-26.36v-11.1l147.71-85.26l45.66 26.36z" />
					<path id="&lt;Path&gt;" class="s1" d="m850.86 699.36l-147.71 85.26l-45.66-26.36l147.71-85.26l45.66 26.36z" />
					<path id="&lt;Path&gt;" class="s0" d="m850.86 710.46l-147.71 85.26v-11.1l147.71-85.26v11.1z" />
					<g id="&lt;Group&gt;">
						<path id="&lt;Path&gt;" class="s0" d="m701.33 785.68l-147.71 96.36l-45.66-26.36v-11.1l147.71-85.26l45.66 26.36z" />
						<path id="&lt;Path&gt;" class="s1" d="m701.33 785.68l-147.71 85.26l-45.66-26.36l147.71-85.26l45.66 26.36z" />
						<path id="&lt;Path&gt;" class="s0" d="m701.33 796.78l-147.71 85.26v-11.1l147.71-85.26v11.1z" />
					</g>
					<path id="&lt;Path&gt;" class="s1" d="m1000.4 613.05l-147.71 85.26l-45.66-26.36l147.71-85.26l45.66 26.36z" />
					<path id="&lt;Path&gt;" class="s0" d="m1000.4 624.15l-147.71 85.26v-11.1l147.71-85.26v11.1z" />
				</g>
				<g id="&lt;Group&gt;">
					<path id="&lt;Path&gt;" class="s0" d="m1241.32 529.86l-135.9 89.55l-45.66-26.36v-11.1l135.9-78.45l45.66 26.36z" />
					<path id="&lt;Path&gt;" class="s1" d="m1241.32 529.86l-135.91 78.45l-45.66-26.36l135.91-78.44l45.66 26.35z" />
					<path id="&lt;Path&gt;" class="s0" d="m1241.32 540.95l-135.9 78.45v-11.1l135.9-78.45v11.1z" />
				</g>
				<g id="&lt;Group&gt;">
					<path id="&lt;Path&gt;" class="s0" d="m1103.58 609.36l-147.71 96.36l-45.66-26.36v-11.1l147.71-85.26l45.66 26.36z" />
					<path id="&lt;Path&gt;" class="s1" d="m1103.58 609.36l-147.71 85.26l-45.66-26.36l147.71-85.26l45.66 26.36z" />
					<path id="&lt;Path&gt;" class="s0" d="m954.05 695.67l-147.71 96.36l-45.66-26.36v-11.1l147.71-85.26l45.66 26.36z" />
					<path id="&lt;Path&gt;" class="s0" d="m1103.58 620.46l-147.71 85.26v-11.1l147.71-85.26v11.1z" />
					<path id="&lt;Path&gt;" class="s1" d="m954.05 695.67l-147.71 85.26l-45.66-26.36l147.71-85.26l45.66 26.36z" />
					<path id="&lt;Path&gt;" class="s0" d="m954.05 706.77l-147.71 85.26v-11.1l147.71-85.26v11.1z" />
					<g id="&lt;Group&gt;">
						<path id="&lt;Path&gt;" class="s0" d="m804.52 781.99l-147.71 96.36l-45.66-26.36v-11.1l147.71-85.26l45.66 26.36z" />
						<path id="&lt;Path&gt;" class="s1" d="m804.52 781.99l-147.71 85.26l-45.66-26.36l147.71-85.26l45.66 26.36z" />
						<path id="&lt;Path&gt;" class="s0" d="m804.52 793.09l-147.71 85.26v-11.1l147.71-85.26v11.1z" />
					</g>
				</g>
			</g>
		</g>
		<g id="&lt;Group&gt;">
			<g id="&lt;Group&gt;">
				<path id="&lt;Compound Path&gt;" class="s2" d="m897.13 475.93l-327.26 188.34l-159.64-92.17l327.26-188.34l159.64 92.17z" />
				<path id="&lt;Compound Path&gt;" class="s3" d="m738.47 387.18l152.73 88.18l-3.9 2.24l-5.79 3.34l-29.03 16.71l-24.49 14.09l-24.49 14.09l-24.48 14.1l-33.49 19.27l-5.8 3.33l-28.81 16.58l-24.49 14.1l-24.49 14.09l-24.49 14.1l-33.71 19.4l-5.78 3.33l-29.08 16.74l-152.73-88.18l29.41-16.93l5.77-3.32l33.4-19.22l24.49-14.09l24.49-14.09l24.49-14.1l28.7-16.52l5.77-3.32l33.62-19.35l24.48-14.09l24.49-14.1l24.49-14.09l28.48-16.39l5.77-3.32l4.47-2.57z" />
				<path id="&lt;Path&gt;" class="s2" d="m646.06 497.59v15.37h26.77l-0.08 0.05l-0.01 15.36h26.77l-0.08 0.05l0 15.37h26.77l-0.08 0.05l0 15.37h19.39l-5.8 3.33h-19.36l0-15.37l0.08-0.05h-26.77l0-15.37l0.08-0.05h-26.77l0.01-15.36l0.08-0.05h-26.77l0-15.37l0.08-0.05h-26.77l0-15.37l0.08-0.05h-26.77l0-11.06l5.77-3.32v11.04h26.77l-0.08 0.05l0 15.37l26.77 0l-0.08 0.05z" />
				<path id="&lt;Path&gt;" class="s2" d="m699.75 409.46l152.73 88.18l-24.49 14.09l-152.73-88.18l24.49-14.09z" />
				<path id="&lt;Path&gt;" class="s4" d="m787.39 416l0.01 15.36h26.77l-0.09 0.05l0 15.36h26.77l-0.09 0.05l0.01 15.36h26.77l-0.09 0.05l0.01 15.36h19.82l-5.79 3.34h-19.81v-15.37l0.08-0.05h-26.77v-15.37l0.08-0.05h-26.77l0.01-15.36l0.08-0.05h-26.77l0-15.37l0.08-0.05h-26.77v-15.37l0.08-0.05h-26.77v-10.8l5.77-3.32l0.01 10.79h26.77l-0.09 0.05l0.01 15.36h26.77l-0.09 0.05z" />
				<path id="&lt;Path&gt;" class="s4" d="m650.77 437.65l152.73 88.18l-24.48 14.1l-152.73-88.18l24.48-14.09z" />
				<path id="&lt;Path&gt;" class="s4" d="m504.73 579.19v15.37l26.77 0l-0.08 0.05l-0.01 15.36h26.77l-0.08 0.05l0 15.37l26.77 0l-0.08 0.05v15.37h18.94l-5.78 3.33h-18.93l0-15.37l0.08-0.05h-26.77l0-15.37l0.08-0.05h-26.77l0.01-15.36l0.08-0.05h-26.77v-15.37l0.08-0.05l-26.77 0l0-15.37l0.08-0.05h-26.77l0-11.31l5.77-3.32l0 11.3h26.77l-0.08 0.05v15.37h26.77l-0.08 0.05z" />
				<path id="&lt;Path&gt;" class="s4" d="m558.2 490.92l152.73 88.18l-24.49 14.1l-152.73-88.18l24.49-14.1z" />
				<path id="&lt;Path&gt;" class="s2" d="m509.23 519.11l152.73 88.18l-24.49 14.1l-152.73-88.18l24.49-14.09z" />
			</g>
			<path id="&lt;Compound Path&gt;" class="s2" d="m569.87 664.27l-6.33 3.64l-159.64-92.17l6.33-3.65l159.64 92.17z" />
			<g id="&lt;Group&gt;">
				<path id="&lt;Compound Path&gt;" class="s2" d="m403.89 575.75l1.97 1.14l-14.29 8.25l-1.97-1.14l14.29-8.25z" />
				<path id="&lt;Compound Path&gt;" class="s2" d="m415.15 582.25l1.97 1.14l-14.29 8.25l-1.97-1.14l14.29-8.25z" />
				<path id="&lt;Compound Path&gt;" class="s2" d="m426.41 588.75l1.97 1.14l-14.29 8.25l-1.97-1.14l14.29-8.25z" />
				<path id="&lt;Compound Path&gt;" class="s2" d="m437.68 595.26l1.97 1.14l-14.29 8.25l-1.97-1.14l14.29-8.25z" />
				<path id="&lt;Compound Path&gt;" class="s2" d="m448.94 601.76l1.97 1.14l-14.29 8.25l-1.97-1.14l14.29-8.25z" />
				<path id="&lt;Compound Path&gt;" class="s2" d="m460.2 608.26l1.97 1.14l-14.29 8.25l-1.97-1.14l14.29-8.25z" />
				<path id="&lt;Compound Path&gt;" class="s2" d="m471.46 614.76l1.97 1.14l-14.29 8.25l-1.97-1.14l14.29-8.25z" />
				<path id="&lt;Compound Path&gt;" class="s2" d="m482.72 621.27l1.97 1.14l-14.29 8.25l-1.97-1.14l14.29-8.25z" />
				<path id="&lt;Compound Path&gt;" class="s2" d="m493.99 627.77l1.97 1.14l-14.29 8.25l-1.97-1.14l14.29-8.25z" />
				<path id="&lt;Compound Path&gt;" class="s2" d="m505.25 634.27l1.97 1.14l-14.29 8.25l-1.97-1.14l14.29-8.25z" />
				<path id="&lt;Compound Path&gt;" class="s2" d="m516.51 640.77l1.97 1.14l-14.29 8.25l-1.97-1.14l14.29-8.25z" />
				<path id="&lt;Compound Path&gt;" class="s2" d="m527.77 647.28l1.97 1.14l-14.29 8.25l-1.97-1.14l14.29-8.25z" />
				<path id="&lt;Compound Path&gt;" class="s2" d="m539.03 653.78l1.97 1.14l-14.29 8.25l-1.97-1.14l14.29-8.25z" />
				<path id="&lt;Compound Path&gt;" class="s2" d="m550.3 660.28l1.97 1.14l-14.29 8.25l-1.97-1.14l14.29-8.25z" />
				<path id="&lt;Compound Path&gt;" class="s2" d="m561.56 666.78l1.97 1.14l-14.29 8.25l-1.97-1.14l14.29-8.25z" />
			</g>
			<path id="&lt;Compound Path&gt;" class="s2" d="m737.49 383.76l6.33-3.64l159.64 92.17l-6.33 3.64l-159.64-92.17z" />
			<g id="&lt;Group&gt;">
				<path id="&lt;Compound Path&gt;" class="s2" d="m903.46 472.29l-1.97-1.14l14.29-8.25l1.97 1.14l-14.29 8.25z" />
				<path id="&lt;Compound Path&gt;" class="s2" d="m892.2 465.78l-1.97-1.14l14.29-8.25l1.97 1.14l-14.29 8.25z" />
				<path id="&lt;Compound Path&gt;" class="s2" d="m880.94 459.28l-1.97-1.14l14.29-8.25l1.97 1.14l-14.29 8.25z" />
				<path id="&lt;Compound Path&gt;" class="s2" d="m869.68 452.78l-1.97-1.14l14.29-8.25l1.97 1.14l-14.29 8.25z" />
				<path id="&lt;Compound Path&gt;" class="s2" d="m858.42 446.28l-1.97-1.14l14.29-8.25l1.97 1.14l-14.29 8.25z" />
				<path id="&lt;Compound Path&gt;" class="s2" d="m847.15 439.77l-1.97-1.14l14.29-8.25l1.97 1.14l-14.29 8.25z" />
				<path id="&lt;Compound Path&gt;" class="s2" d="m835.89 433.27l-1.97-1.14l14.29-8.25l1.97 1.14l-14.29 8.25z" />
				<path id="&lt;Compound Path&gt;" class="s2" d="m824.63 426.77l-1.97-1.14l14.29-8.25l1.97 1.14l-14.29 8.25z" />
				<path id="&lt;Compound Path&gt;" class="s2" d="m813.37 420.27l-1.97-1.14l14.29-8.25l1.97 1.14l-14.29 8.25z" />
				<path id="&lt;Compound Path&gt;" class="s2" d="m802.11 413.76l-1.97-1.14l14.29-8.25l1.97 1.14l-14.29 8.25z" />
				<path id="&lt;Compound Path&gt;" class="s2" d="m790.84 407.26l-1.97-1.14l14.29-8.25l1.97 1.14l-14.29 8.25z" />
				<path id="&lt;Compound Path&gt;" class="s2" d="m779.58 400.76l-1.97-1.14l14.29-8.25l1.97 1.14l-14.29 8.25z" />
				<path id="&lt;Compound Path&gt;" class="s2" d="m768.32 394.26l-1.97-1.14l14.29-8.25l1.97 1.14l-14.29 8.25z" />
				<path id="&lt;Compound Path&gt;" class="s2" d="m757.06 387.76l-1.97-1.14l14.29-8.25l1.97 1.14l-14.29 8.25z" />
				<path id="&lt;Compound Path&gt;" class="s2" d="m745.79 381.25l-1.97-1.14l14.29-8.25l1.97 1.14l-14.29 8.25z" />
			</g>
		</g>
		<g id="&lt;Group&gt;">
			<g id="&lt;Group&gt;">
				<path id="&lt;Path&gt;" class="s5" d="m550.9 513.88c-26.58 15.34-69.53 15.42-95.94 0.17c-1.74-1.01-3.36-2.06-4.87-3.14l-33.09 19.1l-128.52-74.2l238.77-137.85l128.52 74.2l-110.01 63.51c1.88 0.87 3.7 1.81 5.44 2.81c26.41 15.25 26.28 40.05-0.3 55.39z" />
				<g id="&lt;Group&gt;">
					<path id="&lt;Path&gt;" class="s6" d="m604.96 397.02l-83.87-48.42v-10.72l83.87 48.42v10.72z" />
					<path id="&lt;Path&gt;" class="s7" d="m604.96 386.3l-83.87-48.42l2.67-1.54l83.87 48.42l-2.67 1.54z" />
					<path id="&lt;Path&gt;" class="s8" d="m608.69 372.32l8.12-4.69v38.27l-8.12 4.69v-38.27z" />
					<g id="&lt;Group&gt;">
						<path id="&lt;Path&gt;" class="s6" d="m341.11 462.05l-5.34-3.09v-38.27l5.34 3.09v38.27z" />
						<path id="&lt;Path&gt;" class="s7" d="m341.11 423.78l8.12-4.69v38.27l-8.12 4.69v-38.27z" />
						<path id="&lt;Path&gt;" class="s6" d="m426.6 499.99l-83.87-48.42v-10.72l83.87 48.42v10.72z" />
						<path id="&lt;Path&gt;" class="s7" d="m426.6 489.28l-83.87-48.42l2.67-1.54l83.87 48.42l-2.67 1.54z" />
						<path id="&lt;Path&gt;" class="s6" d="m430.33 513.56l-5.34-3.09v-38.27l5.34 3.09v38.27z" />
						<path id="&lt;Path&gt;" class="s8" d="m430.33 475.29l8.12-4.69v38.27l-8.12 4.69v-38.27z" />
					</g>
				</g>
				<path id="&lt;Path&gt;" class="s6" d="m608.69 410.58l-5.34-3.09v-32.82l5.34 3.09v32.82z" />
				<g id="&lt;Group&gt;">
					<g id="&lt;Group&gt;">
						<path id="&lt;Path&gt;" class="s9" d="m329.46 409.57l200.91-115.99l1.81 1.05l-202.72 134.35v-19.41z" />
						<path id="&lt;Path&gt;" class="s10" d="m329.46 411.66l202.72-117.04v20.21l-202.72 117.04v-20.21z" />
					</g>
					<g id="&lt;Group&gt;">
						<path id="&lt;Path&gt;" class="s9" d="m624.93 368.38l-96.37-73.76l1.81-1.05l94.56 54.59v20.21z" />
						<path id="&lt;Path&gt;" class="s6" d="m623.12 369.43l-94.56-54.59v-20.21l94.56 54.59v20.21z" />
					</g>
					<g id="&lt;Group&gt;">
						<path id="&lt;Path&gt;" class="s11" d="m435.73 473.6l-84.72-48.92v-18.11l84.72 48.92v18.11z" />
					</g>
					<g id="&lt;Group&gt;">
						<path id="&lt;Path&gt;" class="s9" d="m422.21 465.21l-94.56-54.59l1.81-1.05l94.56 54.59l-1.81 1.05z" />
						<path id="&lt;Path&gt;" class="s6" d="m422.21 485.42l-94.56-54.59v-20.21l94.56 54.59v20.21z" />
					</g>
					<g id="&lt;Group&gt;">
						<path id="&lt;Path&gt;" class="s12" d="m422.21 463.12l200.91-115.99l1.81 1.05l-202.72 134.35v-19.41z" />
						<path id="&lt;Path&gt;" class="s6" d="m422.21 465.21l202.72-117.04v20.21l-202.72 117.04v-20.21z" />
					</g>
				</g>
			</g>
			<g id="&lt;Group&gt;">
				<g id="&lt;Group&gt;">
					<g id="&lt;Group&gt;">
						<g id="&lt;Group&gt;">
							<path id="&lt;Path&gt;" class="s13" d="m530.43 301.05l93.69 54.45c0 0.77 0.27 1.31 0.71 1.56l-93.69-54.45c-0.44-0.25-0.71-0.79-0.71-1.56z" />
						</g>
						<g id="&lt;Group&gt;">
							<path id="&lt;Path&gt;" class="s14" d="m624.12 355.49l-93.69-54.45l-0.09-31.37l93.69 54.45l0.09 31.37z" />
						</g>
						<g id="&lt;Group&gt;">
							<path id="&lt;Path&gt;" class="s15" d="m624.03 324.12l-93.69-54.45l9.06-40.48l93.69 54.45l-9.06 40.48z" />
						</g>
						<path id="&lt;Path&gt;" class="s16" d="m541.82 225l9.07-5.24c0.68-0.39 1.29-0.43 1.73-0.17l93.69 54.45c-0.44-0.26-1.06-0.22-1.73 0.17l-9.07 5.24c-1.34 0.78-1.9 2.5-2.42 4.2l-93.69-54.45c0.52-1.7 1.08-3.42 2.42-4.2z" />
						<g id="&lt;Group&gt;">
							<path id="&lt;Path&gt;" class="s17" d="m644.58 274.21c1.34-0.78 2.44-0.15 2.44 1.39l-2.74 68.26c0 1.54-1.08 3.42-2.42 4.2l-15.29 8.83c-1.34 0.78-2.44 0.15-2.44-1.39l-0.09-31.37l9.06-40.48c0.52-1.7 1.08-3.42 2.42-4.2l9.07-5.24z" />
						</g>
					</g>
				</g>
				<g id="&lt;Group&gt;">
					<g id="&lt;Group&gt;">
						<g id="&lt;Group&gt;">
							<g id="&lt;Group&gt;">
								<path id="&lt;Path&gt;" class="s18" d="m522.77 266.65l-95.95 55.76c-0.83-0.48-1.58-0.52-2.12-0.21l95.95-55.76c0.54-0.31 1.29-0.27 2.12 0.21z" />
							</g>
							<g id="&lt;Group&gt;">
								<path id="&lt;Path&gt;" class="s19" d="m426.83 322.41l95.95-55.76l97.27 56.16l-95.95 55.76l-97.27-56.16z" />
							</g>
							<path id="&lt;Path&gt;" class="s20" d="m524.1 378.57l95.95-55.76c1.65 0.95 2.98 3.26 2.97 5.15l-0.08 29.26c0 0.94-0.33 1.6-0.87 1.91l-95.95 55.76c0.54-0.31 0.87-0.97 0.87-1.91l0.08-29.26c0.01-1.89-1.33-4.2-2.97-5.15z" />
							<g id="&lt;Group&gt;">
								<path id="&lt;Path&gt;" class="s14" d="m524.1 378.57c1.65 0.95 2.98 3.26 2.97 5.15l-0.08 29.26c-0.01 1.89-1.34 2.66-2.99 1.71l-97.27-56.16c-1.65-0.95-2.98-3.26-2.97-5.15l0.08-29.26c0.01-1.89 1.35-2.66 2.99-1.71l97.27 56.16z" />
							</g>
						</g>
					</g>
					<g id="&lt;Group&gt;">
						<g id="&lt;Group&gt;">
							<g id="&lt;Group&gt;">
								<path id="&lt;Path&gt;" class="s18" d="m423.6 323.94l-95.95 55.76c-0.83-0.48-1.58-0.52-2.12-0.21l95.95-55.76c0.54-0.32 1.29-0.27 2.12 0.21z" />
							</g>
							<g id="&lt;Group&gt;">
								<path id="&lt;Path&gt;" class="s21" d="m327.65 379.7l95.95-55.76l97.27 56.16l-95.95 55.76l-97.27-56.16z" />
							</g>
							<path id="&lt;Path&gt;" class="s22" d="m424.92 435.86l95.95-55.76c1.65 0.95 2.98 3.26 2.97 5.15l-0.08 29.26c0 0.94-0.33 1.6-0.87 1.91l-95.95 55.76c0.54-0.31 0.87-0.97 0.87-1.91l0.08-29.26c0.01-1.89-1.33-4.2-2.97-5.15z" />
							<g id="&lt;Group&gt;">
								<path id="&lt;Path&gt;" class="s14" d="m424.92 435.86c1.65 0.95 2.98 3.26 2.97 5.15l-0.08 29.26c-0.01 1.89-1.35 2.66-2.99 1.71l-97.27-56.16c-1.65-0.95-2.98-3.26-2.97-5.15l0.08-29.26c0.01-1.89 1.34-2.66 2.99-1.71l97.27 56.16z" />
							</g>
						</g>
					</g>
				</g>
				<g id="&lt;Group&gt;">
					<g id="&lt;Group&gt;">
						<g id="&lt;Group&gt;">
							<path id="&lt;Path&gt;" class="s23" d="m511.55 196.88l-95.95 55.76c-0.49 0.07-0.93 0.22-1.32 0.45l95.95-55.76c0.39-0.23 0.83-0.38 1.32-0.45z" />
						</g>
						<g id="&lt;Group&gt;">
							<path id="&lt;Path&gt;" class="s23" d="m415.6 252.64l95.95-55.76l11.87-1.67l-95.95 55.76l-11.87 1.67z" />
						</g>
						<g id="&lt;Group&gt;">
							<path id="&lt;Path&gt;" class="s23" d="m427.47 250.97l95.95-55.76c1.22-0.17 2.55 0.19 3.84 0.94l-95.95 55.76c-1.3-0.75-2.62-1.11-3.84-0.94z" />
						</g>
						<path id="&lt;Path&gt;" class="s24" d="m527.26 196.15c3.35 1.93 6.5 6.44 7.15 11.02l8.7 61.12c0.44 3.08-0.41 5.3-2.01 6.23l-95.95 55.76c1.61-0.93 2.45-3.15 2.01-6.23l-8.7-61.12c-0.65-4.57-3.81-9.08-7.15-11.02l95.95-55.76z" />
						<g id="&lt;Group&gt;">
							<path id="&lt;Path&gt;" class="s14" d="m438.47 262.93l8.7 61.12c0.79 5.54-2.58 8.3-7.07 5.79l-13.27-7.42c-3.51-2.03-6.52-6.65-7.14-11l-7.41-52.09c-0.52-3.68 0.8-6.32 3.33-6.68l11.87-1.67c1.22-0.17 2.55 0.19 3.84 0.94c3.35 1.93 6.5 6.44 7.15 11.02z" />
						</g>
					</g>
				</g>
				<g id="&lt;Group&gt;">
					<g id="&lt;Group&gt;">
						<path id="&lt;Path&gt;" class="s23" d="m411.06 254.62c0.39-0.23 0.83-0.38 1.32-0.45l11.87-1.67c1.22-0.17 2.55 0.19 3.84 0.94l-95.95 55.76c-1.3-0.75-2.62-1.11-3.84-0.94l-11.87 1.67c-0.49 0.07-0.93 0.22-1.32 0.45l95.95-55.76z" />
						<path id="&lt;Path&gt;" class="s25" d="m428.09 253.44c3.35 1.93 6.5 6.44 7.15 11.02l8.7 61.12c0.44 3.08-0.41 5.3-2.01 6.23l-95.95 55.76c1.61-0.93 2.45-3.15 2.01-6.23l-8.7-61.12c-0.65-4.57-3.81-9.08-7.15-11.01l95.95-55.76z" />
						<g id="&lt;Group&gt;">
							<path id="&lt;Path&gt;" class="s26" d="m339.29 320.22l8.7 61.12c0.79 5.54-2.58 8.3-7.07 5.79l-13.27-7.42c-3.51-2.03-6.52-6.65-7.14-11l-7.41-52.09c-0.52-3.68 0.8-6.32 3.33-6.68l11.87-1.67c1.22-0.17 2.55 0.19 3.84 0.94c3.35 1.93 6.5 6.44 7.15 11.01z" />
						</g>
					</g>
				</g>
				<g id="&lt;Group&gt;">
					<g id="&lt;Group&gt;">
						<path id="&lt;Path&gt;" class="s27" d="m402.84 418.02l3.2 64.82c0 0.77 0.27 1.31 0.71 1.56l-93.69-54.45c-0.44-0.25-0.71-0.79-0.71-1.56l-3.2-64.82l93.69 54.45z" />
						<path id="&lt;Path&gt;" class="s28" d="m311.57 359.38l9.07-5.24c0.58-0.33 1.01-0.33 1.36-0.12l93.69 54.45c-0.35-0.2-0.78-0.21-1.36 0.12l-9.07 5.24c-1.34 0.78-2.43 2.66-2.42 4.2l-93.69-54.45c0-1.54 1.08-3.42 2.42-4.2z" />
						<g id="&lt;Group&gt;">
							<path id="&lt;Path&gt;" class="s29" d="m414.33 408.59c1.34-0.78 1.91 0.3 2.44 1.39l9.34 29.86l0.09 31.37c0 1.54-1.08 3.43-2.43 4.2l-15.29 8.83c-1.34 0.78-2.44 0.15-2.44-1.39l-3.2-64.82c0-1.54 1.08-3.42 2.42-4.2l9.07-5.24z" />
						</g>
					</g>
				</g>
			</g>
			<g id="&lt;Group&gt;">
				<g id="&lt;Group&gt;">
					<g id="&lt;Group&gt;">
						<g id="&lt;Group&gt;">
							<path id="&lt;Path&gt;" class="s5" d="m215.94 498.78l44.55-25.72c5.29-3.05 11.8-3.05 17.09 0l46.62 26.9c2.88 1.66 2.88 5.82 0 7.48l-44.55 25.72c-5.29 3.05-11.8 3.05-17.09 0l-46.62-26.9c-2.88-1.66-2.88-5.82 0-7.48z" />
							<g id="&lt;Group&gt;">
								<g id="&lt;Group&gt;">
									<g id="&lt;Group&gt;">
										<path id="&lt;Path&gt;" class="s6" d="m258.17 476.28l9.91-74.96c-0.1 0.79 0.33 1.63 1.25 2.21c1.39 0.88 3.36 0.8 4.4-0.17c0.33-0.31 0.53-0.67 0.6-1.05l-13.65 74.37c-0.03 0.15-0.11 0.3-0.24 0.42c-0.42 0.39-1.21 0.42-1.77 0.07c-0.37-0.23-0.54-0.57-0.5-0.89z" />
										<g id="&lt;Group&gt;">
											<path id="&lt;Path&gt;" class="s30" d="m268.69 400.17c1.04-0.97 3.01-1.05 4.4-0.17c1.39 0.88 1.68 2.38 0.63 3.35c-1.04 0.97-3.01 1.05-4.4 0.17c-1.39-0.88-1.68-2.38-0.63-3.35z" />
										</g>
									</g>
									<g id="&lt;Group&gt;">
										<path id="&lt;Compound Path&gt;" fill-rule="evenodd" class="s31" d="m284.84 442.02l-21.37 9.69l-12.56-9.77l-25.3 29.79l9.64-43.41l15.5 12.05l16.44-19.36l17.93 19.63l22.6-10.25l6.82 44.14l-29.7-32.52zm1.09-0.49l26.91 29.47l-6.01-38.94l-20.9 9.47zm-49.95-11.2l-8.25 37.17l22.29-26.25l-14.04-10.92zm31.25-7.59l-15.58 18.34l11.98 9.31l20.41-9.25l-16.81-18.41z" />
									</g>
									<g id="&lt;Group&gt;">
										<path id="&lt;Path&gt;" class="s6" d="m218.44 499.1l15.63-73.98c-0.16 0.78 0.21 1.66 1.07 2.3c1.32 0.98 3.29 1.06 4.41 0.17c0.35-0.28 0.58-0.63 0.68-1l-19.32 73.1c-0.04 0.15-0.13 0.29-0.27 0.4c-0.45 0.36-1.24 0.33-1.77-0.07c-0.35-0.26-0.5-0.61-0.43-0.92z" />
										<g id="&lt;Group&gt;">
											<path id="&lt;Path&gt;" class="s30" d="m234.76 424.03c1.11-0.89 3.08-0.81 4.4 0.17c1.32 0.98 1.49 2.5 0.38 3.39c-1.11 0.89-3.08 0.81-4.41-0.17c-1.32-0.98-1.49-2.5-0.38-3.39z" />
										</g>
									</g>
									<g id="&lt;Group&gt;">
										<path id="&lt;Path&gt;" class="s6" d="m300.3 404.95c1.15 0.3 3.13 0.06 4.42-0.52c0.73-0.33 1.08-0.71 1.04-1.02l14.58 104.9c0.02 0.13-0.12 0.28-0.42 0.41c-0.52 0.23-1.31 0.33-1.77 0.21c-0.2-0.05-0.3-0.13-0.32-0.23l-18.32-104.31c0.04 0.23 0.3 0.44 0.79 0.56z" />
										<g id="&lt;Group&gt;">
											<path id="&lt;Path&gt;" class="s32" d="m300.55 403.36c1.29-0.59 3.27-0.82 4.42-0.52c1.15 0.3 1.04 1.01-0.25 1.6c-1.29 0.59-3.27 0.82-4.42 0.52c-1.15-0.3-1.04-1.01 0.25-1.6z" />
										</g>
									</g>
									<g id="&lt;Group&gt;">
										<path id="&lt;Path&gt;" class="s33" d="m235.13 431.56l0.96-0.61l40.28 63.9l30.39-61.37l1.02 0.51l-31.29 63.19l-41.36-65.61z" />
									</g>
									<g id="&lt;Group&gt;">
										<path id="&lt;Path&gt;" class="s6" d="m273.19 428.17c1.09 0.47 3.09 0.54 4.45 0.16c0.77-0.22 1.18-0.53 1.18-0.85l-1.59 105.89c0 0.13-0.16 0.25-0.47 0.34c-0.55 0.15-1.34 0.13-1.78-0.06c-0.19-0.08-0.28-0.18-0.28-0.27l-2.2-105.88c0 0.24 0.23 0.48 0.7 0.68z" />
										<g id="&lt;Group&gt;">
											<path id="&lt;Path&gt;" class="s32" d="m273.68 426.63c1.36-0.38 3.35-0.31 4.45 0.16c1.09 0.47 0.88 1.16-0.49 1.54c-1.36 0.38-3.35 0.31-4.45-0.16c-1.09-0.47-0.88-1.16 0.49-1.54z" />
										</g>
									</g>
									<g id="&lt;Group&gt;">
										<path id="&lt;Path&gt;" class="s33" d="m275.58 443.92l-48.02 25.56l-0.54-1.01l48.36-25.75l0.34-0.18l38.32 33.2l-0.74 0.86l-37.73-32.69z" />
									</g>
								</g>
								<g id="&lt;Group&gt;">
									<g id="&lt;Group&gt;">
										<g id="&lt;Group&gt;">
											<path id="&lt;Path&gt;" class="s30" d="m236.73 425.28c1.11-1.04 3.21-1.12 4.69-0.18c1.48 0.94 1.79 2.53 0.68 3.57c-1.11 1.04-3.21 1.12-4.69 0.18c-1.48-0.94-1.79-2.53-0.68-3.57z" />
										</g>
									</g>
									<g id="&lt;Group&gt;">
										<g id="&lt;Group&gt;">
											<path id="&lt;Path&gt;" class="s30" d="m274.32 409.53c1.11-1.04 3.21-1.12 4.69-0.18c1.48 0.94 1.79 2.54 0.68 3.57c-1.11 1.04-3.21 1.12-4.69 0.18c-1.48-0.94-1.79-2.54-0.68-3.57z" />
										</g>
									</g>
									<g id="&lt;Group&gt;">
										<g id="&lt;Group&gt;">
											<path id="&lt;Path&gt;" class="s32" d="m308.21 404.91c1.43-0.47 3.56-0.48 4.74-0.03c1.19 0.45 0.98 1.19-0.45 1.66c-1.43 0.47-3.56 0.48-4.74 0.03c-1.19-0.45-0.98-1.2 0.45-1.66z" />
										</g>
									</g>
									<g id="&lt;Group&gt;">
										<g id="&lt;Group&gt;">
											<path id="&lt;Path&gt;" class="s32" d="m269.11 425.72c1.43-0.47 3.56-0.48 4.74-0.03c1.19 0.45 0.98 1.19-0.45 1.66c-1.43 0.47-3.56 0.48-4.74 0.03c-1.19-0.45-0.98-1.2 0.45-1.66z" />
										</g>
									</g>
									<g id="&lt;Group&gt;">
										<path id="&lt;Compound Path&gt;" class="s34" d="m279.67 446.52c-4.05 2.33-11.17 2.03-15.86-0.68l-35.34-20.4c-2.38-1.38-3.74-3.17-3.74-4.92c0-1.41 0.91-2.71 2.57-3.67l38.02-21.95c4.05-2.33 11.17-2.03 15.86 0.68l35.34 20.4c2.38 1.38 3.74 3.17 3.74 4.92c0 1.41-0.91 2.71-2.57 3.67l-38.02 21.95z" />
									</g>
									<path id="&lt;Path&gt;" class="s6" d="m224.24 412.92l13.26-6.23l27.57-12.76c4.17-2.41 11.53-2.11 16.35 0.68l26.55 12.17l12.77 6.27v7.12h-0.01c0.08 1.61-0.84 3.15-2.81 4.29l-38.02 21.95c-4.17 2.41-11.53 2.1-16.35-0.68l-35.34-20.4c-2.61-1.51-3.96-3.44-3.99-5.28h0v-7.12z" />
									<path id="&lt;Path&gt;" class="s35" d="m263.57 438.6l-35.34-20.4c-4.82-2.78-5.35-7.03-1.17-9.44l38.02-21.95c4.17-2.41 11.53-2.11 16.35 0.68l35.34 20.4c4.82 2.78 5.35 7.03 1.17 9.44l-38.02 21.95c-4.17 2.41-11.53 2.1-16.35-0.68z" />
								</g>
							</g>
						</g>
						<g id="&lt;Group&gt;">
							<g id="&lt;Group&gt;">
								<path id="&lt;Compound Path&gt;" fill-rule="evenodd" class="s36" d="m246.2 425.28c-13.34-7.7-13.27-20.27 0.15-28.02c13.42-7.75 35.19-7.79 48.53-0.09c13.34 7.7 13.27 20.27-0.15 28.02c-13.42 7.75-35.19 7.79-48.53 0.09zm0.91-0.52c12.84 7.41 33.8 7.38 46.72-0.08c12.92-7.46 12.99-19.56 0.15-26.97c-12.84-7.41-33.8-7.38-46.72 0.08c-12.92 7.46-12.99 19.56-0.15 26.97z" />
								<path id="&lt;Compound Path&gt;" fill-rule="evenodd" class="s37" d="m253.58 421.02c-9.3-5.37-9.25-14.13 0.11-19.53c9.36-5.4 24.53-5.43 33.83-0.06c9.3 5.37 9.25 14.13-0.11 19.53c-9.36 5.4-24.53 5.43-33.83 0.06zm1.5-0.86c8.48 4.89 22.31 4.87 30.84-0.06c8.53-4.93 8.57-12.91 0.1-17.81c-8.48-4.89-22.31-4.87-30.84 0.06c-8.53 4.93-8.57 12.91-0.1 17.81z" />
								<path id="&lt;Compound Path&gt;" fill-rule="evenodd" class="s37" d="m260.3 417.14c-5.61-3.24-5.58-8.53 0.06-11.79c5.65-3.26 14.81-3.28 20.42-0.04c5.61 3.24 5.58 8.53-0.06 11.79c-5.65 3.26-14.81 3.28-20.42 0.04zm2.73-1.58c4.11 2.38 10.83 2.36 14.97-0.03c4.14-2.39 4.16-6.27 0.05-8.64c-4.11-2.38-10.83-2.36-14.97 0.03c-4.14 2.39-4.16 6.27-0.05 8.64z" />
							</g>
						</g>
						<g id="&lt;Group&gt;">
							<path id="&lt;Path&gt;" class="s6" d="m282.89 406.13c6.68 3.72 6.9 9.87 0.49 13.72c-6.41 3.86-17.01 3.96-23.69 0.24c-6.68-3.72-6.9-9.87-0.49-13.72c6.41-3.86 17.01-3.96 23.69-0.24z" />
						</g>
						<g id="&lt;Group&gt;">
							<g id="&lt;Group&gt;">
								<g id="&lt;Clip Group&gt;" clip-path="url(#cp1)">
									<g id="&lt;Group&gt;">
										<path id="&lt;Path&gt;" class="s38" d="m271.17 413.96c0 0 0 0-0.01 0c0 0 0.01 0 0.01 0c0 0 0 0-0.01 0z" />
										<path id="&lt;Path&gt;" class="s38" d="m271.17 413.96h0h0h0z" />
									</g>
								</g>
								<g id="&lt;Clip Group&gt;" clip-path="url(#cp2)">
									<g id="&lt;Group&gt;">
										<path id="&lt;Path&gt;" class="s38" d="m271.17 413.96c0 0 0 0 0.01 0c0 0 0 0 0 0.01c0 0 0 0-0.01 0z" />
										<path id="&lt;Path&gt;" class="s38" d="m271.17 413.96h0l0 0h0v0z" />
									</g>
								</g>
								<g id="&lt;Clip Group&gt;" clip-path="url(#cp3)">
									<g id="&lt;Group&gt;">
										<path id="&lt;Path&gt;" class="s38" d="m271.17 413.96c0 0 0 0-0.01 0c0 0 0 0 0-0.01c0 0 0 0 0.01 0z" />
										<path id="&lt;Path&gt;" class="s38" d="m271.17 413.96l0 0v0h0z" />
									</g>
								</g>
								<g id="&lt;Clip Group&gt;" clip-path="url(#cp4)">
									<g id="&lt;Group&gt;">
										<path id="&lt;Path&gt;" class="s38" d="m271.17 413.96c0 0 0 0 0.01 0c0 0-0.01 0-0.01 0c0 0 0 0 0.01 0z" />
										<path id="&lt;Path&gt;" class="s38" d="m271.17 413.96l0 0l0 0v0z" />
									</g>
								</g>
								<g id="&lt;Clip Group&gt;" clip-path="url(#cp5)">
									<g id="&lt;Group&gt;">
										<path id="&lt;Path&gt;" class="s38" d="m271.17 413.96c-0.22-0.12-3.27-1.82-5.77-3.22c3.06-1.84 8.12-1.89 11.31-0.11c3.19 1.78 3.29 4.71 0.23 6.55c-3.06 1.84-8.12 1.89-11.31 0.11c-3.19-1.78-3.29-4.71-0.23-6.55c2.5 1.39 5.55 3.09 5.77 3.22c0 0 0 0 0 0.01c0 0 0.01 0 0.01 0c0 0 0 0 0-0.01c0 0-0.01 0-0.01 0z" />
									</g>
								</g>
								<g id="&lt;Clip Group&gt;" clip-path="url(#cp6)">
									<g id="&lt;Group&gt;">
										<path id="&lt;Path&gt;" class="s38" d="m258.8 388.06l1.97-2.83c5.55-3.34 14.74-3.43 20.53-0.21c1.43 0.8 2.51 1.72 3.26 2.71l2.47 3.29c-0.88-1.18-2.17-2.27-3.87-3.22c-6.87-3.83-17.77-3.72-24.36 0.25z" />
									</g>
								</g>
								<g id="&lt;Clip Group&gt;" clip-path="url(#cp7)">
									<g id="&lt;Group&gt;">
										<path id="&lt;Path&gt;" class="s38" d="m255.45 390.95l2.49-3.28c0.67-0.88 1.6-1.7 2.82-2.43l-1.97 2.83c-1.44 0.87-2.55 1.84-3.34 2.88z" />
									</g>
								</g>
								<g id="&lt;Clip Group&gt;" clip-path="url(#cp8)">
									<g id="&lt;Group&gt;">
										<path id="&lt;Path&gt;" class="s38" d="m288.43 406.49c-0.03 0.57-0.06 1.33-0.19 1.88c-0.22 0.96-0.36 1.45-0.81 2.46c-0.22 0.48-0.56 1.11-0.87 1.54c-0.83 1.16-0.86 1.2-1.79 2.18c-0.72 0.76-1.72 1.48-2.14 1.79c-0.65 0.47-1.34 0.85-1.95 1.19c-1.33 0.73-3.12 1.35-4.31 1.63c-3.6 0.87-7.22 0.83-10.75-0.11c-3.31-0.89-6.4-2.72-8.48-5.03c-1.53-1.71-2.07-2.97-2.49-3.98c-0.2-0.48-0.39-1.16-0.49-1.67c-0.11-0.56-0.17-1.31-0.2-1.88c0-0.48 0-0.89 0-1.33c0-0.44 0-0.9 0-1.37c0-0.48 0-0.97 0-1.46c0-0.49 0-0.99 0-1.48c0-0.49 0-0.98 0-1.45c0-0.47 0-0.92 0-1.34c0-0.42 0-0.82 0-1.18c0-0.36 0-0.68 0-0.95c0-0.27 0-0.5 0-0.66c0-0.06 0-0.14 0-0.2c0.01-2.59 1.6-5.07 4.8-6.99c0 0.38-0.02 7.69-0.03 11.44c-0.01 3.75 4.11 9.83 6.64 11.23c-3.06 1.84-2.95 4.78 0.23 6.55c3.19 1.78 8.25 1.73 11.31-0.11c3.06-1.84 2.95-4.78-0.23-6.55c-3.19-1.78-8.25-1.73-11.31 0.11c-2.52-1.41-6.65-7.48-6.64-11.23c0.01-3.75 0.03-11.06 0.03-11.44c6.59-3.96 17.49-4.08 24.36-0.25c3.53 1.97 5.31 4.6 5.3 7.23c0 1.04-0.01 2.07-0.01 3.11c0 0.42 0 0.88 0 1.34c0 0.47 0 0.95 0 1.45c0 0.49 0 0.99 0 1.48c0 0.49 0 0.98 0 1.46c0 0.48 0 0.94 0 1.37c0 0.44 0 0.85 0 1.22z" />
										<g id="&lt;Group&gt;">
											<path id="&lt;Path&gt;" class="s38" d="m278.82 418.38c9.95-4.06 10.43-12.93 0.9-16.65c-5.41-2.11-13.61-1.81-18.85 3.85c-1.21-2.05-2.11-4.31-2.11-6.07c0.01-3.75 0.03-11.06 0.03-11.44c6.59-3.96 17.49-4.08 24.36-0.25c3.53 1.97 5.31 4.6 5.3 7.23l0 0.31l0 0.29l0 0.37l0 0.44l0 0.51l0 0.57l0 0.61c0 0.42 0 0.88 0 1.34c0 0.47 0 0.95 0 1.45c0 0.49 0 0.99 0 1.48c0 0.49 0 0.98 0 1.46c0 0.48 0 0.94 0 1.37c0 0.44 0 0.85 0 1.22c-0.06 1.14-0.07 1.38-0.35 2.54l-0.29 0.91c-0.2 0.49-0.49 1.13-0.73 1.59l-0.51 0.84c-0.32 0.44-0.76 1.02-1.1 1.45l-0.68 0.73c-0.39 0.36-0.91 0.84-1.32 1.18l-0.83 0.62c-0.31 0.2-0.72 0.48-1.03 0.67l-0.91 0.51c-0.38 0.18-0.88 0.43-1.26 0.6l-0.95 0.38l-0.8 0.28l0.95-0.33c0.06-0.02 0.14-0.05 0.2-0.08z" />
											<path id="&lt;Path&gt;" class="s38" d="m258.76 399.5c0 1.75 0.89 4.01 2.11 6.07c-6.33 6.99-0.09 14.68 11.52 14.18c0 0 0.01 0 0.02 0l-0.97 0.03h0l-0.97-0.01c-0.29-0.02-0.68-0.03-0.97-0.05l-0.97-0.1c-0.3-0.04-0.69-0.1-0.98-0.15l-0.96-0.19c-0.31-0.08-0.72-0.17-1.03-0.26l-0.96-0.29c-0.33-0.12-0.78-0.27-1.11-0.4l-0.94-0.41c-0.37-0.18-0.86-0.43-1.22-0.62l-0.89-0.53c-0.39-0.26-0.91-0.62-1.29-0.9l-0.78-0.64c-0.38-0.35-0.88-0.84-1.23-1.21l-0.64-0.76c-0.32-0.43-0.73-1.03-1.01-1.48l-0.46-0.86c-0.21-0.48-0.47-1.13-0.64-1.63l-0.23-0.93c-0.19-1.23-0.2-1.28-0.2-1.99c0-0.38 0-0.79 0-1.22c0-0.44 0-0.9 0-1.37c0-0.48 0-0.97 0-1.46c0-0.49 0-0.99 0-1.48c0-0.49 0-0.98 0-1.45c0-0.47 0-0.92 0-1.34c0-0.42 0-0.82 0-1.18c0-0.36 0-0.68 0-0.95c0-0.27 0-0.5 0-0.66c0-0.09 0-0.22 0-0.31c0.01-2.48 1.6-4.96 4.8-6.88c0 0.38-0.02 7.69-0.03 11.44z" />
										</g>
										<path id="&lt;Path&gt;" class="s39" d="m279.13 411.95c-1.71-1.12-3.48-2.27-6.59-2.58c-1.03-0.1-2.09-0.2-5.91 0.29c-0.38 0.05-1.18 0.15-1.4-0.59c-0.01-0.03-0.43-3.39 3.99-5.24c3.92-1.64 7.1-0.24 7.98 0.23c1.85 0.99 2.86 2.22 3.46 4.24c0.36 1.23-0.07 3.89-1.02 3.96c-0.18 0.01-0.35-0.22-0.5-0.31z" />
										<path id="&lt;Path&gt;" class="s40" d="m274.97 407.69c-1.17 0.08-4.43-0.3-4.65-0.68c-0.16-0.29-0.02-0.8 0.16-1.07c0.3-0.44 2.84-0.74 2.86-0.73c0.02 0 2.49 0.67 2.64 1.32c0.07 0.32-0.08 0.82-0.33 1.04c-0.16 0.14-0.48 0.12-0.69 0.14z" />
									</g>
								</g>
								<g id="&lt;Clip Group&gt;" clip-path="url(#cp9)">
									<g id="&lt;Group&gt;">
										<path id="&lt;Path&gt;" class="s41" d="m283.66 401.93c-6.59 3.96-17.49 4.08-24.36 0.25c-5.37-2.99-6.68-7.51-3.85-11.23l2.49-3.28c-2.38 3.14-1.28 6.94 3.24 9.46c5.79 3.23 14.98 3.13 20.53-0.21c4.18-2.52 5.1-6.16 2.83-9.18l2.47 3.29c2.7 3.59 1.6 7.91-3.36 10.89z" />
									</g>
								</g>
								<g id="&lt;Clip Group&gt;" clip-path="url(#cp10)">
									<g id="&lt;Group&gt;">
										<path id="&lt;Path&gt;" class="s38" d="m256.72 391.04l0.05-17.84c0.01-2.09 1.35-4.18 4.04-5.8l-0.05 17.85c-2.69 1.62-4.04 3.71-4.04 5.8z" />
									</g>
								</g>
								<g id="&lt;Clip Group&gt;" clip-path="url(#cp11)">
									<g id="&lt;Group&gt;">
										<path id="&lt;Path&gt;" class="s38" d="m260.76 385.24l0.05-17.85c5.55-3.34 14.74-3.43 20.53-0.21c2.98 1.66 4.47 3.88 4.47 6.09l-0.05 17.84c0.01-2.22-1.49-4.43-4.47-6.09c-5.79-3.23-14.98-3.13-20.53 0.21z" />
									</g>
								</g>
								<g id="&lt;Clip Group&gt;" clip-path="url(#cp12)">
									<g id="&lt;Group&gt;">
										<path id="&lt;Path&gt;" class="s42" d="m277.25 418.92c-2.13 0.64-3.77 0.76-4.85 0.83c-1.03 0.08-2.12 0.01-2.92-0.04c-0.6-0.04-1.4-0.16-2-0.25c-1.19-0.19-2.54-0.57-3.99-1.13c-1.09-0.42-2.66-1.25-3.5-1.85c-0.86-0.62-2.16-1.55-3.38-3.08c-1.14-1.43-1.68-2.61-1.9-3.19c-0.21-0.57-0.46-1.34-0.57-1.93c-0.11-0.56-0.15-1.32-0.18-1.88c0-0.38 0-0.79 0-1.22c0-0.44 0-0.9 0-1.37c0-0.48 0-0.97 0-1.46c0-0.49 0-0.99 0-1.48c0-0.49 0-0.98 0-1.45c0-0.47 0-0.92 0-1.34c0-0.42 0-0.82 0-1.18c0-0.36 0-0.68 0-0.95c0-0.27 0-0.5 0-0.66c0-0.09 0-0.22 0-0.31c-0.01 2.63 1.77 5.26 5.3 7.23c6.87 3.83 17.77 3.72 24.36-0.25c3.2-1.92 4.79-4.4 4.8-6.77c0 1-0.01 2-0.01 3c0 0.42 0 0.88 0 1.34c0 0.47 0 0.95 0 1.45c0 0.49 0 0.99 0 1.48c0 0.49 0 0.98 0 1.46c0 0.48 0 0.94 0 1.37c0 0.44 0 0.85 0 1.22c-0.05 1.43-0.13 1.84-0.57 3.28c0 0.01-0.38 1.19-1.21 2.47c-1.23 1.9-2.84 3.42-5.05 4.78c-0.72 0.44-2.25 1.28-4.34 1.91z" />
									</g>
								</g>
								<g id="&lt;Group&gt;">
									<path id="&lt;Path&gt;" class="s41" d="m281.34 367.19c5.79 3.23 5.98 8.55 0.43 11.89c-5.55 3.34-14.74 3.43-20.53 0.21c-5.79-3.23-5.98-8.55-0.43-11.89c5.55-3.34 14.74-3.43 20.53-0.21z" />
								</g>
								<g id="&lt;Group&gt;">
									<path id="&lt;Path&gt;" class="s42" d="m278.7 366.57c4.26 2.38 4.4 6.3 0.31 8.76c-4.09 2.46-10.86 2.53-15.13 0.15c-4.26-2.38-4.4-6.3-0.31-8.76c4.09-2.46 10.86-2.53 15.13-0.15z" />
								</g>
								<g id="&lt;Group&gt;">
									<path id="&lt;Path&gt;" class="s37" d="m275.64 368.4c2.51 1.4 2.59 3.7 0.18 5.15c-2.4 1.45-6.38 1.49-8.89 0.09c-2.51-1.4-2.59-3.7-0.18-5.15c2.4-1.45 6.38-1.49 8.89-0.09z" />
								</g>
								<g id="&lt;Group&gt;">
									<path id="&lt;Path&gt;" class="s41" d="m274.72 368.96c1.98 1.1 2.04 2.92 0.15 4.06c-1.9 1.14-5.04 1.17-7.01 0.07c-1.98-1.1-2.04-2.92-0.15-4.06c1.9-1.14 5.04-1.17 7.01-0.07z" />
								</g>
								<g id="&lt;Clip Group&gt;" clip-path="url(#cp13)">
									<g id="&lt;Group&gt;">
										<path id="&lt;Path&gt;" class="s42" d="m281.72 396.92c-5.55 3.34-14.74 3.43-20.53 0.21c-2.98-1.66-4.47-3.88-4.47-6.09l0.05-17.84c-0.01 2.22 1.49 4.43 4.47 6.09c5.79 3.23 14.98 3.13 20.53-0.21c2.69-1.62 4.04-3.71 4.04-5.8l-0.05 17.84c-0.01 2.09-1.35 4.18-4.04 5.8z" />
									</g>
								</g>
							</g>
						</g>
					</g>
				</g>
				<g id="&lt;Group&gt;">
					<g id="&lt;Group&gt;">
						<path id="&lt;Path&gt;" class="s43" d="m252.66 348.62l-2.92-0.68c4.16-9.16 10.94-17.11 18.15-21.27c7.2-4.16 13.99-4.04 18.15 0.32l-2.92 4.05c-3.49-3.65-9.18-3.75-15.23-0.27c-6.04 3.49-11.74 10.16-15.23 17.85z" />
					</g>
					<g id="&lt;Group&gt;">
						<path id="&lt;Path&gt;" class="s43" d="m277.77 342.59c-2.25-2.41-5.95-2.49-9.88-0.22c-3.93 2.27-7.63 6.62-9.88 11.63l-2.93-0.65c2.92-6.49 7.71-12.13 12.81-15.08c5.1-2.95 9.89-2.84 12.81 0.28l-2.93 4.04z" />
					</g>
					<g id="&lt;Group&gt;">
						<path id="&lt;Path&gt;" class="s43" d="m263.37 359.36l-2.97-0.57c1.68-3.84 4.47-7.17 7.48-8.91c3-1.73 5.79-1.64 7.47 0.24l-2.96 4.01c-1.01-1.14-2.7-1.19-4.5-0.15c-1.82 1.05-3.5 3.06-4.51 5.37z" />
					</g>
				</g>
			</g>
			<g id="&lt;Group&gt;">
				<path id="&lt;Path&gt;" class="s44" d="m461.34 452.2c-2.64-17.32-4.27-28.87-4.88-34.66c-0.93-8.68-5.13-14.11-5.49-14.11c-0.36 0-20.26-8.96-33.53-17.48c-14.63-9.38-26.1-16.5-29.12-22.98c-3.03-6.48-10.24-36.44-12.31-43.23c-1.38-4.53-3.92-15.53-7.6-32.99l3.21-2.04c39.12-18.14 61.23-29.2 66.34-33.17c7.66-5.95 44.99-41.07 50.32-41.44c5.33-0.37 20.64 7.72 21.46 10.7c0.81 2.98 1.67 4.5 0 5.54c-1.67 1.04-5.76 1.28-7.2-0.08c-1.44-1.36-6.25-8.51-6.97-8.54c-0.72-0.03-5.21-1.24-6.41-0.59c-1.2 0.64-24.76 23.44-31.57 28.23c-6.81 4.78-15.27 15.52-22.54 17.36c-2.94 0.75-5.81 44.78 3.23 70.83c8.87 25.56 22.62 46.65 41.23 63.29l-8.73 49.9l-9.42 5.47z" />
				<g id="&lt;Group&gt;">
					<path id="&lt;Path&gt;" class="s45" d="m492.13 466.78c0.51 2.43 0.51 9.83 2.3 11.88c1.19 1.36 7.75 8.13 19.67 20.3c0.85 4.09 1.36 6.43 1.53 7.02c0.26 0.89-7.66 3.19-11.75 3.32c-4.09 0.13-16.86-5.62-18.77-8.68c-1.92-3.06-16.6-14.81-16.86-18.52c-0.17-2.47 1.45-6.51 4.85-12.13c-0.09-4.85-0.04-7.41 0.13-7.66c0.17-0.26 6.47 1.23 18.9 4.47z" />
					<path id="&lt;Path&gt;" class="s46" d="m435.03 237.19c3.32-1.99 11.23-7.77 13.7-9.28c2.46-1.51 6.67-0.53 9.43 2.48c2.76 3.01 4.72 5.82 3.54 7.51c-1.18 1.69-10.04 7.9-12.74 11.01c-2.7 3.11-7.1 6.8-9.44 8.12c-1.56 0.88-3.05-5.74-4.48-19.84z" />
					<path id="&lt;Path&gt;" class="s47" d="m411.59 246.46c0.01-0.43-1.21-1.05 0.55-2.41c1.18-0.91 9.62-3.91 25.34-9.01c3.12 0.23 5.46 2 7.02 5.31c1.56 3.31 1.69 8.33 0.39 15.06c-9.55 5.2-14.61 7.8-15.18 7.78c-0.57-0.01-6.61-5.59-18.12-16.73z" />
					<path id="&lt;Path&gt;" class="s48" d="m491.53 462.34c0.51 2.43 0.51 9.83 2.3 11.88c1.19 1.36 7.75 8.13 19.67 20.3c0.85 4.09 1.36 6.43 1.53 7.02c0.26 0.89-7.66 3.19-11.75 3.32c-4.09 0.13-16.86-5.62-18.77-8.68c-1.92-3.06-16.6-14.81-16.86-18.52c-0.17-2.47 1.45-6.51 4.85-12.13c-0.09-4.85-0.04-7.41 0.13-7.66c0.17-0.26 6.47 1.23 18.9 4.47z" />
					<path id="&lt;Path&gt;" class="s49" d="m429.21 332.34c7.66 3.92 12.6 7.41 14.81 10.47c3.32 4.6 4.4 10.04 5.62 11.53c0.81 0.99 7.03 6.34 18.64 16.05c5.19 12.09 9.49 22.26 12.9 30.52c5.11 12.39 6.26 53.38 6.38 60.53c0.09 4.77 0.09 7.36 0 7.79c-9.88-0.43-15.54-1.87-16.98-4.34c-2.17-3.7-13.41-56.44-12.9-66.91c-24.26-8.17-44.95-20.43-50.44-24.52c-5.49-4.09-8.56-9.19-9.83-14.69c-1.28-5.49 13.54-22.03 16.47-23.66c1.96-1.09 7.07-2.01 15.32-2.78z" />
					<g id="&lt;Group&gt;">
						<path id="&lt;Path&gt;" class="s50" d="m475.62 467.85c-6.21-45.85-10.18-74.04-10.64-75.42c-0.42-0.38-4.22-1.42-7.9-2.43c-8.55-2.35-21.47-5.9-31.22-11.62c-15.18-8.89-23.9-17.85-23.99-17.94l1.04-1c0.08 0.09 8.69 8.91 23.68 17.69c9.59 5.62 22.4 9.14 30.87 11.47c7.01 1.93 8.54 2.43 8.87 3.34c0.64 1.75 6.98 48.19 10.71 75.71l-1.43 0.19z" />
					</g>
					<path id="&lt;Path&gt;" class="s50" d="m450.87 325.55c8.86 2.83 18.44 6.02 23.55 9.34c5.11 3.32 14.81 13.54 16.73 18.13c1.92 4.6 2.43 13.03-1.02 16.35c-3.45 3.32-19.67 2.43-21.84 1.02c-1.45-0.94-7.25-5.79-17.42-14.56c-9.41-11.52-15.19-18.32-17.31-20.39c-2.13-2.07 3.64-5.37 17.31-9.89z" />
					<path id="&lt;Path&gt;" class="s45" d="m494.56 447.12c0.51 0.77 2.55 5.24 3.7 5.75c0.77 0.34 5.58 1.19 14.43 2.55l12.9 0.89c2.19 5.05 2.85 8.3 2 9.75c-0.85 1.45-6.88 3.6-18.09 6.47l-17.88 3.19l-12 0.89l-2.68-19.03c0.51-7.92 0.85-12 1.02-12.26c0.17-0.26 5.7 0.34 16.6 1.79z" />
					<path id="&lt;Path&gt;" class="s48" d="m493.96 442.67c0.51 0.77 2.55 5.24 3.7 5.75c0.77 0.34 5.58 1.19 14.43 2.55l12.9 0.89c2.19 5.05 2.85 8.3 2 9.75c-0.85 1.45-6.88 3.6-18.09 6.47l-17.88 3.19l-12 0.89l-2.68-19.03c0.51-7.92 0.85-12 1.02-12.26c0.17-0.26 5.7 0.34 16.6 1.79z" />
					<path id="&lt;Path&gt;" class="s50" d="m492.07 355.99c1.25 2.28 2.78 17.6 3.93 24.62c1.15 7.02 2.68 59.76 3.06 62.7c0.38 2.94-21.2 7.15-22.35 5.11c-1.15-2.04-13.92-69.21-11.37-83c1.7-9.19 8.3-13.41 19.79-12.64l6.92 3.21z" />
					<path id="&lt;Path&gt;" class="s51" d="m396.91 250.87c2.36-1.4 9.71-5.75 13.09-6.19c3.38-0.45 6.29-0.64 10.44 2.11c4.15 2.75 6.48 7.28 8.85 12.07c2.36 4.79 3.77 17.05 4.34 19.73c0.57 2.68 5.46 32.2 6.64 36.02c1.86 5.96 5.96 9.79 12.31 11.5c-6.3 3.48-10.27 6.22-11.93 8.22c-2.49 3-9.26 8.49-14.81 11.37c-5.56 2.87-13.66 9.77-17.81 13.34c-4.15 3.58-6.64 8.3-7.02 8.81c-0.38 0.51-6.38-10.02-8.43-14.94c-2.04-4.92-6.9-24.97-8.81-30.07c-1.92-5.11-14.05-33.78-15.83-40.29c-1.79-6.51-2.69-8.93-1.63-11.14c3.33-6.94 14.63-15.39 17.52-17.04c1.93-1.1 6.29-2.26 13.1-3.49z" />
					<path id="&lt;Path&gt;" class="s46" d="m406.87 248.7c-0.89 1.92 0.02 7.56-0.61 9.85c-0.64 2.3-5.97 4.71-9.95 4.65c-3.98-0.07-7.28-1.34-10.66-4.02c-3.38-2.68-2.19-3.61-1.76-5.18c0.81-2.93 0.94-5.93 0.38-9c-1.87-3.45-3.04-6.28-3.51-8.49c-0.7-3.32-0.45-5.68 0-6.58c0.3-0.6 2.34-1.4 6.13-2.43l19.99 21.2z" />
					<path id="&lt;Path&gt;" class="s46" d="m513.43 219.32c-0.02 0.14-0.04 0.26-0.08 0.38v0.06c-0.28 0.98-1.12 1.5-1.74 1.12c-0.7-0.44-0.72 1.32-1.48 1.62c-0.52 0.2-1.32 0.2-2.4 0c-1.49 0.04-2.43-0.15-2.82-0.58c-0.39-0.43-0.75-1.09-1.08-1.98c-0.8 0.48-1.43 0.38-1.9-0.3c-0.45-0.67-0.96-1.69-1.52-3.08l-0.96-0.66l-4.8-3.34c-2.12-0.79-3.96-0.89-5.52-0.3c-2.32 0.9-23.24 24.1-28.64 26.86c-3.6 1.83-5.71-0.06-6.32-5.66c-3.16-1.48-5.98-3.68-5.14-5.34c0.84-1.66 6.46-6.36 13.2-9.46c6.72-3.1 20.98-13.14 24.08-14.04c3.12-0.88 14.26 1.2 16.82 1.54c2.56 0.36 7.12 5.06 8.14 6.34c1.02 1.28 2.26 5.56 2.16 6.82z" />
					<path id="&lt;Path&gt;" class="s52" d="m513.35 219.7v0.06c-0.28 0.98-1.12 1.5-1.74 1.12c-0.7-0.44-0.72 1.32-1.48 1.62c-0.52 0.2-1.32 0.2-2.4 0c-1.49 0.04-2.43-0.15-2.82-0.58c-0.39-0.43-0.75-1.09-1.08-1.98c-0.8 0.48-1.43 0.38-1.9-0.3c-0.45-0.67-0.96-1.69-1.52-3.08l-0.96-0.66c-0.47-2.11-0.66-3.23-0.58-3.36c0.08-0.12 0.47-0.93 1.18-2.44c0.42 0 4.7 0.68 5.82 0.98c0.76 0.21 1.82 1.31 3.18 3.3l1.88 4l2.42 1.32z" />
					<path id="&lt;Path&gt;" class="s46" d="m494.77 208.49c1.95-0.5 4.6-0.12 5.67 0.79c1.06 0.91 2.26 3.59 2.45 3.86c0.19 0.26 4.89 3.34 6.29 4.38c1.4 1.03-0.26 3.65-1.65 3.25c-1.39-0.4-6.06-3.43-6.26-3.55c-0.2-0.12-4.63-0.99-6.65-2.44c-1.35-0.96-1.99-2.33-1.93-4.1l2.08-2.18z" />
					<path id="&lt;Path&gt;" class="s46" d="m393.59 297.44c2.9 2.35 16.28 24.56 17.52 26.66c1.24 2.11 4.31 6.7 2.78 11.01c-1.53 4.31-4.88 8.24-7.85 6.51c-2.97-1.72-28.65-27.89-29.89-32.43c-0.83-3.02 1.06-5.78 5.66-8.28l11.79-3.49z" />
					<path id="&lt;Path&gt;" class="s46" d="m407.95 327.46c1.34-1.44 2.16-2.69 3.62-2.59c1.46 0.1 33.83 5.66 39.77 6.52c5.94 0.86 14.37 1.15 14.75 1.15c0.38 0 9.86-1.82 10.92-1.82c0.7 0 3.58 1.15 8.62 3.45c1.09 2.04 1.72 3.19 1.92 3.45c0.29 0.38 1.24 3.42 0.77 4.44c-0.32 0.68-0.86 1.28-1.63 1.79l-0.38 2.2l-2.59-1.63c-3.06-1.43-5.08-2.21-6.03-2.36c-1.44-0.22-11.3 2.74-14.17 2.55c-1.92-0.13-3.54-0.64-4.88-1.53c-30.47 1.25-47.84 0.85-52.11-1.22c-4.27-2.06-3.79-6.86 1.45-14.4z" />
					<path id="&lt;Path&gt;" class="s46" d="m407.45 211.21c2.27 1.67 2.08 6.24 3.4 9.23c1.32 3 1.76 12.18 1.74 18.7c-0.02 6.52 0.11 10.03-0.58 11.48c-0.69 1.44-4.38 2.86-6.28 3.16c-1.9 0.3-14.67-3.92-16.29-5.49c-1.62-1.57-7.89-16.64-8.25-19.69c-0.36-3.05 0.9-13.86 2.25-14.77c1.36-0.91 17.73-5.52 19.4-4.21c1.11 0.88 2.65 1.4 4.62 1.58z" />
					<path id="&lt;Path&gt;" class="s53" d="m402.88 217.09c-4.06 1.73-11.87 3.42-13.16 4.33c-1.29 0.9-0.05 5.9-1.16 7.75c-0.74 1.23-1.02 2.25-0.85 3.03l1.09 8.19l-2.68 0.15c-1.19-5.31-2.38-8.27-3.56-8.88c-1.78-0.92-2.37 2.18-2.06 4.33c0.31 2.16 2.96 4.89 3.14 5.9c0.12 0.68 0.33 1.71 0.62 3.1c-3.35-1.99-5.83-4.09-7.45-6.3c-2.42-3.32-5.92-14.34-5.18-20.89c0.64-5.65 2.86-8.67 6.66-9.05c5.39-4.31 11.51-6.24 18.35-5.81c10.27 0.65 12.24 7.79 13.09 10.49c0.85 2.7 2.48 10.51 2.22 12.25c-0.74-3.5-1.88-7.58-3.42-12.25c-1.6 1.52-3.49 2.74-5.65 3.67z" />
					<path id="&lt;Path&gt;" class="s46" d="m385.09 241.49c-1.13 0.45-2.42 1.28-3.68-0.56c-1.25-1.85-2.84-6.29-2.36-7.99c0.48-1.69 2.98-1.16 3.47 0.16c0.33 0.88 1.18 3.68 2.57 8.39z" />
					<path id="&lt;Path&gt;" class="s47" d="m366.28 271.4c3.94-1.56 10.94-2.63 16.77 4.47c2.55 3.11 7.44 10.97 14.65 23.56l-22.03 11.4c-7.95-17.17-11.93-28.79-11.93-34.86c0-1.55 0.85-3.07 2.54-4.57z" />
				</g>
				<g id="&lt;Group&gt;">
					<path id="&lt;Path&gt;" class="s54" d="m480.65 448.57c-0.08-0.56-7.54-55.96-8.18-68.43c-0.59-11.56-1.99-12.81-3.23-13.9l-0.26-0.23c-0.64-0.58-3.72-1.84-6.71-3.06c-3.14-1.28-6.69-2.73-8.8-3.94l0.72-1.25c2.03 1.16 5.53 2.59 8.63 3.85c3.91 1.6 6.35 2.61 7.14 3.33l0.24 0.22c1.52 1.35 3.1 2.74 3.72 14.91c0.63 12.41 8.09 67.75 8.17 68.31l-1.43 0.19z" />
				</g>
				<g id="&lt;Group&gt;">
					<path id="&lt;Path&gt;" class="s50" d="m410.14 367.46l-0.04-1.44c4.43-0.13 8.38-9.78 9.53-13.48l1.38 0.43c-0.18 0.58-4.51 14.31-10.86 14.5z" />
				</g>
			</g>
		</g>
		<g id="&lt;Group&gt;">
			<path id="&lt;Path&gt;" class="s5" d="m1019.98 624.97l-194.51 112.3l-59.88-34.57l194.51-112.3l59.88 34.57z" />
			<path id="&lt;Path&gt;" class="s55" d="m787.4 694.81c-0.63 0-1.27-0.18-1.79-0.51c-0.88-0.56-1.35-1.48-1.23-2.41l3.16-23.87h7.13l-4.55 24.78c-0.09 0.48-0.33 0.91-0.7 1.26c-0.52 0.48-1.23 0.75-2.02 0.75z" />
			<g id="&lt;Group&gt;">
				<path id="&lt;Path&gt;" class="s55" d="m842.17 726.66c-0.4 0-0.98-0.04-1.5-0.24c-1.05-0.4-1.21-1.19-1.23-1.51l-3.57-56.9h7.85l1.52 56.64c0.01 0.38-0.12 1.32-1.5 1.77c-0.46 0.15-1.02 0.23-1.58 0.23z" />
			</g>
			<g id="&lt;Group&gt;">
				<path id="&lt;Path&gt;" class="s56" d="m945.15 584.33h4.07l-3.41 18.56c-0.03 0.18-0.13 0.36-0.29 0.51c-0.51 0.47-1.47 0.51-2.15 0.08c-0.45-0.28-0.66-0.69-0.61-1.08l2.39-18.08z" />
			</g>
			<g id="&lt;Group&gt;">
				<path id="&lt;Path&gt;" class="s55" d="m999.19 637c-0.4 0-0.98-0.04-1.5-0.24c-1.04-0.39-1.21-1.18-1.23-1.5l-3.28-52.3h7.69l1.4 52.03c0.01 0.38-0.12 1.32-1.5 1.77c-0.46 0.15-1.02 0.23-1.58 0.23z" />
			</g>
			<g id="&lt;Group&gt;">
				<path id="&lt;Path&gt;" class="s6" d="m1019.98 596.47l-194.51 112.3v-40.6l194.51-112.3v40.6z" />
				<path id="&lt;Path&gt;" class="s8" d="m828.98 702.68v-32.49l187.49-108.24v32.49l-187.49 108.24z" />
				<path id="&lt;Path&gt;" class="s35" d="m1019.98 555.87l-194.51 112.3l-36.72-21.2l-23.16-13.37l83.91-48.44l110.61-63.86l59.87 34.57z" />
				<path id="&lt;Path&gt;" class="s6" d="m765.59 633.6l59.88 34.57v40.6l-59.88-34.57v-40.6z" />
				<path id="&lt;Path&gt;" class="s57" d="m1016.46 594.44l-28.13-16.24l28.13-16.24v32.49z" />
			</g>
		</g>
		<g id="&lt;Group&gt;">
			<g id="&lt;Group&gt;">
				<path id="&lt;Path&gt;" class="s5" d="m701.72 270.8c-14.11 8.15-37.06 8.1-51.26-0.09c-14.2-8.2-14.27-21.45-0.16-29.59c14.11-8.15 37.06-8.11 51.26 0.09c14.2 8.2 14.27 21.45 0.16 29.6z" />
				<g id="&lt;Group&gt;">
					<path id="&lt;Path&gt;" class="s6" d="m705.35 246.06c-0.63 0.35-1.44 0.32-1.82-0.07c-0.08-0.08-0.13-0.17-0.16-0.27l-25.42-126.58c0.07 0.24 0.2 0.46 0.39 0.66c0.93 0.99 2.95 1.07 4.53 0.19c1.22-0.68 1.81-1.75 1.58-2.65l21.52 127.66c0.09 0.36-0.15 0.79-0.63 1.06z" />
					<g id="&lt;Group&gt;">
						<path id="&lt;Path&gt;" class="s58" d="m684.05 116.6c0.93 0.99 0.4 2.5-1.17 3.38c-1.57 0.88-3.6 0.8-4.53-0.19c-0.93-0.99-0.4-2.5 1.17-3.38c1.58-0.88 3.6-0.8 4.53 0.19z" />
					</g>
				</g>
				<g id="&lt;Group&gt;">
					<path id="&lt;Path&gt;" class="s6" d="m673.18 122.32l-25.42 126.59c-0.03 0.1-0.09 0.2-0.18 0.29c-0.39 0.38-1.21 0.39-1.83 0.03c-0.47-0.28-0.68-0.69-0.59-1.04l21.52-127.67c-0.22 0.87 0.32 1.91 1.48 2.6c1.54 0.92 3.59 0.89 4.57-0.07c0.22-0.22 0.37-0.46 0.45-0.72z" />
					<g id="&lt;Group&gt;">
						<path id="&lt;Path&gt;" class="s59" d="m672.73 123.04c-0.98 0.95-3.03 0.99-4.57 0.07c-1.54-0.92-2-2.43-1.01-3.39c0.98-0.95 3.03-0.99 4.57-0.07c1.54 0.92 2 2.43 1.01 3.39z" />
					</g>
				</g>
				<g id="&lt;Group&gt;">
					<path id="&lt;Path&gt;" class="s6" d="m680.09 217.95l-0.49-0.31l-25.92-16.25l0.78-1.25l25.43 15.94l17.82-17.45l1.03 1.05l-18.65 18.26z" />
				</g>
				<g id="&lt;Group&gt;">
					<path id="&lt;Path&gt;" class="s60" d="m654.34 200.56l-0.04-1.47l43.65-1.25l0.04 1.47l-43.65 1.25z" />
				</g>
				<g id="&lt;Group&gt;">
					<g id="&lt;Group&gt;">
						<path id="&lt;Path&gt;" class="s61" d="m675.61 120.58l2.5-0.88l-2.5 0.88c-1.25-0.48-1.13-1.26 0.25-1.74c1.38-0.48 3.51-0.49 4.76-0.01c1.25 0.48 1.13 1.26-0.25 1.74c-1.38 0.48-3.51 0.49-4.76 0.01z" />
					</g>
					<path id="&lt;Path&gt;" class="s6" d="m682.07 274.09c0 0.14-0.15 0.27-0.44 0.38c-0.55 0.2-1.41 0.2-1.91 0.01c-0.23-0.09-0.34-0.2-0.35-0.31l-5.77-154.34c0.01 0.29 0.3 0.57 0.87 0.78c1.25 0.47 3.38 0.46 4.76-0.03c0.74-0.26 1.11-0.61 1.11-0.95l1.74 154.45z" />
				</g>
				<path id="&lt;Path&gt;" class="s62" d="m710.19 122.34c0.05 5.07-3.25 10.14-9.93 14c-13.31 7.68-34.95 7.64-48.34-0.09c-6.7-3.87-10.06-8.93-10.09-13.98h0v-3.44h0.51c1.16-3.85 4.3-7.53 9.43-10.49c13.31-7.68 34.95-7.64 48.34 0.09c5.11 2.95 8.28 6.6 9.5 10.4h0.58l0 3.51h0z" />
				<path id="&lt;Path&gt;" class="s63" d="m641.83 118.85v-49.29h68.37v49.29h-68.37z" />
				<path id="&lt;Path&gt;" class="s64" d="m700.26 83.55c-13.31 7.68-34.95 7.64-48.34-0.09c-13.39-7.73-13.46-20.23-0.15-27.91c13.31-7.68 34.95-7.64 48.34 0.09c13.39 7.73 13.46 20.23 0.15 27.91z" />
				<path id="&lt;Path&gt;" class="s65" d="m698.21 82.37c-3.62 2.09-7.92 3.56-12.48 4.39c-6.3 1.17-13.13 1.14-19.43-0.07c-4.51-0.86-8.75-2.33-12.34-4.4c-12.26-7.08-12.33-18.52-0.14-25.55c12.18-7.03 32-7 44.26 0.08c12.26 7.08 12.32 18.52 0.14 25.55z" />
				<path id="&lt;Path&gt;" class="s6" d="m685.73 82.01v4.75c-6.3 1.17-13.13 1.14-19.43-0.07v-4.55l19.43-0.14z" />
				<path id="&lt;Path&gt;" class="s35" d="m682.9 85.99c-3.78 2.18-9.93 2.17-13.74-0.02c-3.81-2.2-3.83-5.75-0.04-7.93c3.78-2.18 9.93-2.17 13.74 0.02c3.81 2.2 3.83 5.75 0.04 7.93z" />
			</g>
			<g id="&lt;Group&gt;">
				<path id="&lt;Path&gt;" class="s66" d="m679.62 84.03c-1.98 1.14-5.2 1.14-7.19-0.01c-1.99-1.15-2-3.01-0.02-4.15c1.98-1.14 5.2-1.14 7.19 0.01c1.99 1.15 2 3.01 0.02 4.15z" />
				<path id="&lt;Path&gt;" class="s67" d="m680.11 82.02h-0.01c-0.03 0.58-0.42 1.16-1.19 1.6c-1.6 0.92-4.19 0.92-5.8-0.01c-0.8-0.46-1.2-1.07-1.21-1.67h0v-1.72l1.29-0.02c1.52-0.82 3.87-0.85 5.45-0.07l1.46-0.02v1.89z" />
				<path id="&lt;Path&gt;" class="s68" d="m678.92 81.76c-1.6 0.92-4.19 0.92-5.8-0.01c-1.61-0.93-1.62-2.43-0.02-3.35c1.6-0.92 4.19-0.92 5.8 0.01c1.61 0.93 1.62 2.43 0.02 3.35z" />
				<path id="&lt;Path&gt;" class="s69" d="m678.85 81.63c-1.56 0.9-4.1 0.9-5.67-0.01c-1.57-0.91-1.58-2.37-0.02-3.27c1.56-0.9 4.1-0.9 5.66 0.01c1.57 0.91 1.58 2.37 0.02 3.27z" />
				<path id="&lt;Path&gt;" class="s69" d="m672 80.14v0c0-0.89-0.21-1.88-0.6-2.67l-2.02-4.74h13.26l-2.02 4.74c-0.39 0.79-0.6 1.78-0.6 2.67h-8.01z" />
				<path id="&lt;Path&gt;" class="s69" d="m682.64 72.74c0 3.66-2.97 6.63-6.63 6.63c-3.66 0-6.63-2.97-6.63-6.63c0-3.66 2.97-6.63 6.63-6.63c3.66 0 6.63 2.97 6.63 6.63z" />
				<path id="&lt;Path&gt;" class="s70" d="m678.6 81.53c-1.42 0.82-3.74 0.82-5.17-0.01c-1.43-0.83-1.44-2.16-0.02-2.98c1.42-0.82 3.74-0.82 5.17 0.01c1.43 0.83 1.44 2.16 0.02 2.98z" />
				<path id="&lt;Path&gt;" class="s71" d="m678.06 69.2c-1.13 0.65-2.96 0.65-4.1-0.01c-1.14-0.66-1.14-1.72-0.01-2.37c1.13-0.65 2.96-0.65 4.1 0.01c1.14 0.66 1.14 1.72 0.01 2.37z" />
			</g>
		</g>
		<g id="&lt;Group&gt;">
			<path id="&lt;Path&gt;" class="s5" d="m657.7 757.39c-19.85 11.46-52.14 11.4-72.12-0.13c-19.98-11.53-20.08-30.17-0.23-41.64c19.85-11.46 52.14-11.4 72.12 0.13c19.98 11.53 20.08 30.17 0.23 41.64z" />
			<path id="&lt;Path&gt;" class="s72" d="m657.68 753.5c-19.88 11.48-52.22 11.42-72.23-0.13c-20.01-11.55-20.11-30.22-0.23-41.7c19.88-11.48 52.22-11.42 72.23 0.13c20.01 11.55 20.11 30.22 0.23 41.7z" />
			<path id="&lt;Path&gt;" class="s73" d="m672.53 716.51v13.2l0 0c0.08 7.26-4.45 14.51-13.61 20.17c-0.4 0.25-0.82 0.5-1.24 0.74c-0.2 0.11-0.4 0.23-0.6 0.34c-19.93 11.14-51.82 10.97-71.63-0.47c-9.96-5.75-14.99-13.27-15.07-20.78l0 0v-13.68l8.58 0.04c1.81-1.55 3.89-3.03 6.27-4.4c19.88-11.48 52.22-11.42 72.23 0.13c2.52 1.45 4.72 3.02 6.61 4.67l8.47 0.04z" />
			<path id="&lt;Path&gt;" class="s71" d="m657.68 737.78c-19.88 11.48-52.22 11.42-72.23-0.13c-20.01-11.55-20.11-30.22-0.23-41.7c19.88-11.48 52.22-11.42 72.23 0.13c20.01 11.55 20.11 30.22 0.23 41.7z" />
			<path id="&lt;Path&gt;" class="s74" d="m656.5 737.1c-19.58 11.3-51.42 11.25-71.12-0.13c-19.7-11.37-19.8-29.76-0.22-41.06c19.58-11.3 51.42-11.25 71.12 0.13c19.7 11.37 19.8 29.76 0.22 41.06z" />
			<path id="&lt;Path&gt;" class="s75" d="m586.51 695.24l72.41 41.8c-0.4 0.25-0.81 0.5-1.24 0.74c-0.2 0.11-0.4 0.22-0.6 0.34l-72.44-41.82c0.19-0.12 0.38-0.23 0.58-0.34c0.42-0.24 0.85-0.48 1.29-0.71z" />
			<path id="&lt;Path&gt;" class="s75" d="m654.28 735.45c-18.02 10.4-47.32 10.35-65.44-0.12c-18.13-10.47-18.22-27.38-0.21-37.78c18.02-10.4 47.32-10.35 65.44 0.12c18.13 10.47 18.22 27.38 0.2 37.78z" />
			<path id="&lt;Path&gt;" class="s76" d="m652.58 733.62c-2.02 1.17-4.19 2.19-6.47 3.08c-17.03 6.63-40.44 5.56-55.6-3.19c-15.16-8.75-17.02-22.26-5.53-32.1c1.54-1.32 3.32-2.57 5.34-3.74c17.09-9.86 44.88-9.81 62.07 0.11c17.19 9.93 17.28 25.97 0.19 35.84z" />
			<path id="&lt;Path&gt;" class="s77" d="m621.16 714.21c-3.3-1.89-3.36-4.95-0.12-6.84c3.29-1.91 8.62-1.92 11.93-0.03c3.32 1.9 3.35 4.96 0.06 6.88c-3.27 1.9-8.52 1.9-11.87-0.01z" />
			<path id="&lt;Path&gt;" class="s78" d="m631.65 714.22c-2.61 1.52-6.82 1.52-9.49-0.01c-2.64-1.51-2.68-3.96-0.09-5.47c2.63-1.53 6.89-1.54 9.54-0.02c2.66 1.52 2.68 3.97 0.05 5.5z" />
			<g id="&lt;Group&gt;">
				<path id="&lt;Path&gt;" class="s79" d="m629.01 710.34c-0.35-0.2-0.73-0.38-1.15-0.53c-0.78-0.28-1.63-0.45-2.54-0.52c-0.45-0.03-0.9-0.04-1.35-0.02c-0.21 0.01-0.38-0.04-0.5-0.14c-0.11-0.1-0.11-0.2-0.02-0.3c0.08-0.09 0.22-0.14 0.4-0.15c0.49-0.03 0.99-0.02 1.48 0.01c0.62 0.04 1.22 0.13 1.8 0.26c0.48 0.11 0.93 0.24 1.36 0.4c0.37 0.14 0.72 0.3 1.05 0.47c0.33 0.18 0.63 0.37 0.89 0.57c0.36 0.27 0.65 0.57 0.88 0.89c0.26 0.36 0.44 0.73 0.53 1.11c0.07 0.31 0.09 0.62 0.04 0.93c-0.03 0.17-0.28 0.29-0.57 0.27c-0.27-0.01-0.49-0.16-0.47-0.32c0.03-0.24 0.03-0.47-0.01-0.71c-0.06-0.33-0.2-0.65-0.41-0.96c-0.15-0.22-0.34-0.44-0.56-0.64c-0.25-0.22-0.54-0.43-0.86-0.62z" />
				<path id="&lt;Path&gt;" class="s79" d="m628.3 710.8c0.66 0.39 1.14 0.87 1.37 1.44c0.13 0.32 0.17 0.64 0.12 0.96c-0.02 0.16-0.26 0.28-0.54 0.27c-0.28-0.01-0.51-0.15-0.5-0.31c0-0.11 0.02-0.22 0.01-0.33c-0.03-0.4-0.21-0.77-0.56-1.12c-0.28-0.29-0.65-0.53-1.1-0.73c-0.7-0.31-1.49-0.48-2.36-0.5c-0.19-0.01-0.39 0-0.59 0c-0.2 0-0.36-0.04-0.47-0.13c-0.12-0.1-0.14-0.21-0.04-0.31c0.08-0.09 0.22-0.15 0.41-0.16c0.78-0.04 1.55 0.02 2.29 0.18c0.43 0.09 0.84 0.22 1.22 0.37c0.25 0.1 0.49 0.22 0.75 0.37z" />
				<path id="&lt;Path&gt;" class="s79" d="m626.85 711.69c0.56 0.33 0.87 0.79 0.85 1.33c0 0.08-0.02 0.15-0.09 0.22c-0.14 0.13-0.47 0.18-0.7 0.09c-0.19-0.07-0.28-0.17-0.26-0.3c0.03-0.27-0.07-0.53-0.34-0.76c-0.37-0.32-0.88-0.5-1.54-0.55c-0.15-0.01-0.3-0.01-0.44 0c-0.23 0.01-0.46-0.08-0.53-0.21c-0.08-0.13 0.01-0.27 0.21-0.35c0.08-0.03 0.17-0.05 0.26-0.05c0.58-0.03 1.14 0.04 1.66 0.19c0.27 0.07 0.59 0.21 0.92 0.4z" />
				<path id="&lt;Path&gt;" class="s79" d="m623.79 713.35c-0.41-0.24-0.42-0.62-0.01-0.85c0.41-0.24 1.08-0.24 1.49 0c0.42 0.24 0.42 0.62 0.01 0.86c-0.41 0.24-1.07 0.24-1.48 0z" />
			</g>
			<path id="&lt;Path&gt;" class="s76" d="m646.11 736.7c-17.03 6.63-40.44 5.56-55.6-3.19c-15.16-8.75-17.02-22.26-5.53-32.1l0.04 0.01c22.8 6.92 43.71 18.99 61.09 35.28z" />
			<path id="&lt;Path&gt;" class="s75" d="m584.49 701.85c0.16-0.15 0.32-0.3 0.49-0.44l0.04 0.01c22.8 6.92 43.71 18.99 61.09 35.28c-0.25 0.1-0.51 0.17-0.75 0.27c-17.34-16.2-38.16-28.22-60.87-35.12z" />
			<path id="&lt;Path&gt;" class="s80" d="m636.15 707.16c-1.64-0.94-1.43-2.59 0.46-3.69l2.75-1.59c1.89-1.09 4.75-1.21 6.38-0.26c1.64 0.94 1.43 2.59-0.46 3.69l-2.75 1.59c-1.89 1.09-4.75 1.21-6.38 0.26z" />
			<path id="&lt;Path&gt;" class="s76" d="m643.55 701.41c-0.06 0.6-0.28 1.03-0.67 1.29c-0.58 0.4-0.84-0.23-2.59 0.77c-1.74 1-2.6 1.38-3 2.01c-0.27 0.42-0.41 0.67-0.41 0.75c-0.19 0.17-0.5 0.21-0.95 0.12c-0.67-0.13-0.41-1.13-0.33-1.42c0.17-0.64 5.19-4.16 7.95-3.51z" />
			<path id="&lt;Path&gt;" class="s81" d="m643.78 705.39l-2.52 1.48c-1 0.58-2.52 0.64-3.39 0.14c-0.87-0.5-0.76-1.38 0.24-1.95l2.52-1.48c1-0.58 2.52-0.64 3.39-0.14c0.87 0.5 0.76 1.38-0.24 1.95z" />
			<path id="&lt;Path&gt;" class="s82" d="m642.99 705.38l-2.56 1.4c-0.48 0.28-1.21 0.31-1.63 0.07c-0.42-0.24-0.37-0.66 0.12-0.94l2.56-1.4c0.48-0.28 1.21-0.31 1.63-0.07c0.42 0.24 0.37 0.66-0.12 0.94z" />
			<path id="&lt;Path&gt;" class="s83" d="m611.13 730.64c-4.49 2.59-11.8 2.58-16.32-0.03c-2.42-1.4-3.55-3.26-3.39-5.09l-0.02-0.01v-3.4l1.99 0.02c0.4-0.34 0.85-0.66 1.37-0.95c4.49-2.59 11.8-2.58 16.32 0.03c0.59 0.34 1.11 0.71 1.55 1.1l1.86 0.02v3.44c0.08 1.76-1.03 3.53-3.35 4.87z" />
			<path id="&lt;Path&gt;" class="s84" d="m610.8 729.09c-4.31 2.49-11.33 2.48-15.67-0.03c-4.34-2.51-4.36-6.56-0.05-9.05c4.31-2.49 11.33-2.48 15.67 0.03c4.34 2.51 4.36 6.56 0.05 9.05z" />
			<path id="&lt;Path&gt;" class="s83" d="m611.13 727.89c-4.49 2.59-11.8 2.58-16.32-0.03c-4.52-2.61-4.54-6.83-0.05-9.42c4.49-2.59 11.8-2.58 16.32 0.03c4.52 2.61 4.54 6.83 0.05 9.42z" />
			<path id="&lt;Path&gt;" class="s85" d="m611.13 726.85c-4.49 2.59-11.8 2.58-16.32-0.03c-4.52-2.61-4.54-6.83-0.05-9.42c4.49-2.59 11.8-2.58 16.32 0.03c4.52 2.61 4.54 6.83 0.05 9.42z" />
			<path id="&lt;Path&gt;" class="s76" d="m610.67 726.58c-4.37 2.52-11.49 2.51-15.89-0.03c-4.4-2.54-4.42-6.65-0.05-9.17c4.37-2.52 11.49-2.51 15.89 0.03c4.4 2.54 4.42 6.65 0.05 9.17z" />
			<path id="&lt;Path&gt;" class="s75" d="m658.92 737.04v12.84c-0.4 0.25-0.82 0.5-1.24 0.74c-0.2 0.11-0.4 0.23-0.6 0.34v-13.92h1.83z" />
		</g>
		<g id="&lt;Group&gt;">
			<g id="&lt;Group&gt;" style="opacity: .4">
				<path id="&lt;Path&gt;" class="s86" d="m978.59 271.34l-0.63 173.04c0.03-10.86-2.1-21.69-6.36-32.32c-6.24-15.55-16.89-30.26-31.65-43.7l0.63-173.04c14.76 13.45 25.41 28.15 31.65 43.7c4.27 10.64 6.39 21.46 6.36 32.32z" />
			</g>
			<g id="&lt;Group&gt;">
				<g id="&lt;Group&gt;" style="opacity: .4">
					<path id="&lt;Path&gt;" class="s86" d="m975.96 271l-0.63 173.04c-0.1 36.08-23.93 71.91-69.8 98.57c-21.04 12.23-45.4 21.96-72.4 28.92l0.63-173.04c27-6.96 51.36-16.69 72.4-28.92c45.87-26.66 69.7-62.49 69.8-98.57z" />
				</g>
				<g id="&lt;Group&gt;">
					<path id="&lt;Path&gt;" class="s87" d="m972.23 239.02c6.12 15.26 7.84 30.91 5.1 46.51c-2.77 15.74-10 30.95-21.48 45.2c-11.88 14.76-28.06 28.14-48.08 39.77c-21.24 12.34-45.83 22.17-73.08 29.19l-0.93-1.2c27-6.96 51.36-16.69 72.4-28.92c78.9-45.85 92.57-118.84 32.51-173.56l1.91-0.7c14.76 13.45 25.41 28.15 31.65 43.7z" />
				</g>
			</g>
			<g id="&lt;Group&gt;">
				<g id="&lt;Group&gt;">
					<g id="&lt;Group&gt;">
						<path id="&lt;Path&gt;" class="s88" d="m695.43 444.54l-0.63 173.04l-0.27 1.3l0.63-173.04l0.27-1.3z" />
					</g>
					<path id="&lt;Path&gt;" class="s89" d="m995.96 339.99l-0.63 173.04l-2.12-0.47v0c-14.01 21.46-35.39 40.63-63.56 57l-2.58 1.5c-61.23 35.58-145.89 52.53-232.27 46.51l0.63-173.04c86.38 6.02 171.04-10.93 232.27-46.51l2.58-1.5c28.17-16.37 49.55-35.55 63.56-57l2.12 0.47z" />
					<g id="&lt;Group&gt;">
						<path id="&lt;Path&gt;" class="s87" d="m931.89 397.46l-2.58 1.5c-15.65 9.1-33.07 17.1-51.77 23.78c-18.17 6.5-37.67 11.79-57.94 15.74c-19.91 3.88-40.65 6.47-61.63 7.7c-20.85 1.23-41.99 1.11-62.81-0.34l0.27-1.3c86.38 6.02 171.04-10.93 232.27-46.51l2.58-1.5c28.17-16.37 49.55-35.55 63.56-57l2.12 0.47c-14.12 21.63-35.67 40.96-64.07 57.47z" />
					</g>
				</g>
			</g>
			<g id="&lt;Group&gt;" style="opacity: .7">
				<path id="&lt;Path&gt;" class="s90" d="m845.56 484.91v69.55c0 8.39-5.8 15.69-13.98 17.53c-25.15 5.68-51.71 9.22-78.94 10.48c-9.42 0.44-17.29-7.08-17.29-16.51v-69.43c0-9.59 7.52-17.49 17.09-17.96c25.07-1.22 49.58-4.57 72.95-9.78c10.34-2.31 20.16 5.52 20.16 16.11z" />
				<path id="&lt;Path&gt;" class="s90" d="m954.34 412.85c7.13-5.3 17.26-0.19 17.26 8.7v67.2c0 9.85-4.42 19.2-12.12 25.35c-8.6 6.87-18.18 13.39-28.71 19.5l-2.58 1.5c-10.36 6.02-21.38 11.5-32.98 16.43c-7.12 3.03-15.02-2.23-15.02-9.97v-67.39c0-12.83 7.53-24.46 19.23-29.72c10.29-4.63 20.11-9.66 29.39-15.05l2.58-1.5c8.23-4.78 15.88-9.81 22.93-15.05z" />
			</g>
		</g>
		<g id="&lt;Group&gt;">
			<g id="&lt;Group&gt;">
				<g id="&lt;Group&gt;">
					<path id="&lt;Path&gt;" class="s5" d="m1119.5 524.93c-14.08 8.13-36.97 8.09-51.13-0.09c-14.16-8.18-14.24-21.39-0.16-29.52c14.08-8.13 36.97-8.08 51.13 0.09c14.16 8.18 14.24 21.39 0.16 29.52z" />
					<path id="&lt;Path&gt;" class="s75" d="m1127.42 460.76c0 0.36 0 0.86 0 1.5c0 4.71-0.75 35.21-9.75 50.32c-0.07 0-0.11 0-0.11 0c-1.18 1.93-3.11 3.75-5.68 5.25c-9.97 5.68-25.93 5.68-35.9-0.11c-2.57-1.5-4.5-3.22-5.79-5.14c-5.86-16.12-9.15-32.43-9.86-48.93v-0.75c0.14-15.72 22.5-16.43 67.08-2.14z" />
					<path id="&lt;Path&gt;" class="s75" d="m1127.42 462.26c0 4.71-0.75 35.21-9.75 50.32c-0.07 0-0.11 0-0.11 0c-1.18 1.93-3.11 3.75-5.68 5.25c-9.97 5.68-25.93 5.68-35.9-0.11c-2.57-1.5-4.5-3.22-5.79-5.14c-5.86-16.12-9.15-32.43-9.86-48.93v-0.75l8.89 6.86c2.14 29.9 9.86 45.78 23.15 47.64c19.93 2.79 30.22-20.96 35.04-55.14z" />
					<path id="&lt;Path&gt;" class="s91" d="m1117.72 475.9c-13.1 7.56-34.41 7.52-47.59-0.09c-13.18-7.61-13.25-19.91-0.15-27.48c13.1-7.56 34.41-7.52 47.59 0.09c13.18 7.61 13.25 19.91 0.15 27.47z" />
					<path id="&lt;Path&gt;" class="s92" d="m1112.72 472.44c-10.35 5.98-27.19 5.95-37.61-0.06c-10.42-6.02-10.47-15.74-0.12-21.71c10.35-5.98 27.19-5.95 37.61 0.07c10.42 6.01 10.47 15.73 0.12 21.71z" />
					<path id="&lt;Path&gt;" class="s93" d="m1067.72 463.96c-1.47-4.76 0.92-9.84 7.27-13.5c10.35-5.98 27.19-5.95 37.61 0.07c6.47 3.73 8.93 8.9 7.39 13.71c-0.93-3-3.37-5.89-7.39-8.21c-10.42-6.01-27.25-6.04-37.61-0.07c-3.92 2.26-6.34 5.07-7.27 8z" />
					<path id="&lt;Path&gt;" class="s94" d="m1103.78 470.3c-5.43 3.14-14.27 3.12-19.73-0.03c-5.47-3.16-5.5-8.26-0.06-11.39c5.43-3.14 14.27-3.12 19.73 0.04c5.47 3.16 5.49 8.26 0.06 11.39z" />
				</g>
				<g id="&lt;Group&gt;">
					<path id="&lt;Path&gt;" class="s95" d="m1062.96 285.4l0.82-0.94c33.05 28.71 32.45 142.41 32.45 179.56h-1.25c0-37.02 0.63-150.26-32.02-178.62z" />
				</g>
				<path id="&lt;Path&gt;" class="s95" d="m1091.46 466.45c0.06-20.82-0.28-41.67-2.31-62.37c-1.05-10.34-2.52-20.65-5.01-30.73c-2.52-10.02-6.02-19.97-11.96-28.41l1-0.74c6.17 8.62 9.79 18.68 12.43 28.78c2.6 10.15 4.18 20.52 5.32 30.91c2.22 20.79 2.74 41.7 2.86 62.56h-2.31z" />
				<path id="&lt;Path&gt;" class="s95" d="m1093.65 467.24c-0.37-0.11-0.36-0.21-0.35-0.32l0-0.32l0.01-0.64l0.02-1.29l0.03-2.58l0.07-5.16c0.02-3.44 0.11-6.88 0.25-10.32c0.19-6.88 0.55-13.75 1-20.61c0.95-13.73 2.29-27.43 4.32-41.05c2.09-13.6 4.79-27.14 8.64-40.37c2.03-6.59 1.59-7.23 4.48-13.52c2.83-6.28 6.08-12.51 10.9-17.64l0.9 0.86c-4.62 4.95-7.82 11.11-10.58 17.32c-2.82 6.22-2.35 6.83-4.33 13.38c-3.78 13.17-6.4 26.65-8.43 40.21c-1.97 13.57-3.25 27.24-4.13 40.93c-0.41 6.85-0.75 13.7-0.91 20.56c-0.13 3.43-0.21 6.86-0.21 10.29l-0.05 5.14l-0.02 2.57l-0.01 1.29l-0.01 0.64l0 0.32c0.01 0.11 0.02 0.21-0.35 0.32h-1.25z" />
				<path id="&lt;Path&gt;" class="s95" d="m1096.43 466.3c0.16-10.94 0.84-21.87 2.34-32.7c1.57-10.82 3.77-21.55 6.74-32.07c2.96-10.52 6.77-20.82 11.59-30.66c2.51-4.87 0.97-2.59 4.25-7.01c3.2-4.41 6.87-8.81 12.09-11.24l0.48 1.15c-4.75 2.23-8.4 6.52-11.49 10.87c-3.19 4.35-1.61 2.03-4.06 6.86c-4.72 9.76-8.45 20-11.33 30.46c-2.89 10.47-5.02 21.13-6.52 31.88c-1.43 10.77-2.05 21.62-2.15 32.47h-1.92z" />
				<path id="&lt;Path&gt;" class="s95" d="m1090.13 466.45c-3.74-32.96-11.66-53.25-14.5-60.09c-1.44-3.4-3.1-6.74-5.25-9.72c-1.05-1.5-2.25-2.89-3.61-4.06c-1.34-1.15-2.95-2.08-4.58-2.06l-0.07-1.24c2.18-0.05 4.01 1.09 5.48 2.31c1.49 1.26 2.76 2.71 3.87 4.27c2.26 3.08 3.98 6.48 5.49 9.94c2.96 6.96 12.29 30.26 15.22 60.66h-2.05z" />
				<path id="&lt;Path&gt;" class="s95" d="m1061.95 377.5c7.85 3.79 10.24 12.66 2.08 12.99l-30.77-5.7l-9.19-9.33c8.29-3.15 28.51-2.47 37.88 2.05z" />
				<path id="&lt;Path&gt;" class="s95" d="m1024.07 375.45c4.83 4.15 13.73 7.21 26.68 9.18c4.26 0.65 8.32 2.27 11.85 4.74c0.71 0.5 1.19 0.87 1.43 1.12c-1.94 2.6-5.82 10.16-21.75 1.74c-16.47-8.7-21.63-15.48-18.2-16.78z" />
				<path id="&lt;Path&gt;" class="s96" d="m1061.94 376.72c7.85 3.79 10.24 12.66 2.08 12.99l-30.77-5.7l-9.19-9.33c8.29-3.15 28.5-2.48 37.88 2.05z" />
				<path id="&lt;Path&gt;" class="s97" d="m1024.06 374.67c4.83 4.15 13.73 7.21 26.68 9.18c4.26 0.65 8.32 2.27 11.85 4.74c0.71 0.5 1.19 0.87 1.43 1.12c-1.94 2.6-5.82 10.16-21.76 1.74c-16.47-8.7-21.62-15.48-18.2-16.78z" />
				<path id="&lt;Path&gt;" class="s96" d="m1048.21 271.68c0.71-1.2 1.69-2.03 2.88-2.53c8.15-3.38 26.19 8.76 34.1 22.34c3.04 5.21 4.64 10.44 3.72 14.77c-0.92 4.34-4.22 6.22-9.89 5.64c-4.83 7.57-11.68 7.34-20.54-0.68c-3.04-2.75-5.47-6.17-7.39-9.85c-6.46-12.38-4.69-26.6-2.88-29.7z" />
				<path id="&lt;Path&gt;" class="s98" d="m1048.69 271.08c0.71-1.2 1.69-2.03 2.88-2.53c8.15-3.38 26.19 8.76 34.1 22.34c3.04 5.21 4.64 10.44 3.72 14.77c-0.92 4.34-4.22 6.22-9.89 5.64c-4.83 7.57-11.68 7.34-20.54-0.68c-3.04-2.75-5.47-6.17-7.39-9.85c-6.46-12.38-4.69-26.6-2.88-29.7z" />
				<path id="&lt;Path&gt;" class="s95" d="m1054.71 318.7c4.29-2.83 18.59 5.74 26.38 16.41c3.88 5.3 5.92 12.09 4.78 16.35c-1.16 3.42-3.41 5.1-6.76 5.04l-0.03 0.05c-0.36 0.61-3.99 6.34-12.95 4.01c-3.44-0.9-8.3-6.65-10.8-13.09c-4.42-11.35-4.78-26.03-0.63-28.78z" />
				<path id="&lt;Path&gt;" class="s96" d="m1055.01 318.1c4.29-2.83 18.59 5.74 26.38 16.41c3.88 5.3 5.92 12.09 4.78 16.35c-1.16 3.42-3.41 5.1-6.76 5.04l-0.03 0.05c-0.36 0.61-3.99 6.34-12.95 4.01c-3.44-0.9-8.3-6.65-10.8-13.09c-4.42-11.35-4.78-26.03-0.63-28.78z" />
				<path id="&lt;Path&gt;" class="s95" d="m1133.66 352.77l0.01 0c-3.1-2.67-0.15-5.63 8.85-8.88c3.5-1.27 13.22-3.49 21.68-2.79c9.65 0.8 22.82 4.98 22.84 9.54c0 2.7-14.47 6.71-25.04 6.44c-10.86-0.27-16.46 3.68-28.32 2.18c-6.64-1.12-0.27-6.27-0.01-6.49z" />
				<path id="&lt;Path&gt;" class="s98" d="m1133.66 352.17l0.01 0c-3.1-2.67-0.15-5.63 8.85-8.88c3.5-1.27 13.22-3.49 21.68-2.79c9.65 0.8 22.82 4.98 22.84 9.54c0 2.7-14.47 6.71-25.04 6.44c-10.86-0.27-16.46 3.68-28.32 2.18c-6.64-1.12-0.27-6.27-0.01-6.49z" />
				<path id="&lt;Path&gt;" class="s95" d="m1094.58 467.09c0.11-12.4 2.36-24.71 6.37-36.39c2.01-5.84 4.49-11.53 7.66-16.87c1.61-2.65 3.35-5.25 5.57-7.5c1.1-1.13 2.33-2.19 3.86-2.89c1.45-0.8 3.76-0.61 4.95 0.8l-0.91 0.85c-0.91-0.95-2.24-1.09-3.51-0.46c-1.26 0.59-2.41 1.57-3.42 2.64c-2.07 2.14-3.75 4.7-5.29 7.3c-3.04 5.25-5.43 10.89-7.34 16.66c-3.83 11.55-5.91 23.71-5.88 35.86h-2.06z" />
				<path id="&lt;Path&gt;" class="s95" d="m1110.5 315.37c4.05-4.16 35.21-14.65 45.08-7.58c6.5 4.65-8.97 12.1-20.33 16.49c-11.35 4.39-16.84 2.6-18.31-2.07c-6.87 1.26-10.5-2.69-6.45-6.84z" />
				<path id="&lt;Path&gt;" class="s97" d="m1110.5 314.57c4.05-4.16 35.21-14.65 45.08-7.58c6.5 4.65-8.97 12.1-20.33 16.49c-11.35 4.39-16.84 2.6-18.31-2.07c-6.87 1.26-10.5-2.69-6.45-6.84z" />
				<path id="&lt;Path&gt;" class="s95" d="m1122.09 405.09c2.94-10.7 24-3.61 28.01 6.6c3.71 9.42 1.49 18.11-1.67 19.72c-3.16 1.6-14.78-0.63-26.79-10.26c-12.01-9.63-12.46-18.61 0.45-16.06z" />
				<path id="&lt;Path&gt;" class="s98" d="m1122.77 404.41c2.94-10.7 24-3.61 28.01 6.6c3.71 9.42 1.49 18.11-1.67 19.72c-3.16 1.6-14.78-0.63-26.79-10.26c-12.01-9.63-12.46-18.61 0.45-16.06z" />
				<path id="&lt;Path&gt;" class="s97" d="m1122.77 404.41c9.86 2.99 18.64 11.76 26.34 26.31c-3.16 1.6-14.78-0.63-26.79-10.26c-12.01-9.63-12.46-18.61 0.45-16.06z" />
			</g>
			<path id="&lt;Path&gt;" class="s96" d="m1133.66 352.17l0.01 0c14.33-2.82 25.99-7.87 53.36-2.13c0 2.7-14.47 6.71-25.04 6.44c-10.86-0.27-16.46 3.68-28.32 2.18c-6.64-1.12-0.27-6.27-0.01-6.49z" />
			<path id="&lt;Path&gt;" class="s98" d="m1155.58 306.98c6.5 4.65-8.97 12.1-20.33 16.49c-11.35 4.39-16.84 2.6-18.31-2.07c3.36-8.23 25.45-4.77 38.63-14.42z" />
			<path id="&lt;Path&gt;" class="s97" d="m1048.69 271.08c0.71-1.2 1.69-2.03 2.88-2.53c7.38 14.73 17.35 22.44 27.93 42.75c-4.83 7.57-11.68 7.34-20.54-0.68c-3.04-2.75-5.47-6.17-7.39-9.85c-6.46-12.38-4.69-26.6-2.88-29.7z" />
			<path id="&lt;Path&gt;" class="s98" d="m1055.01 318.1c14.62 20.94 20.83 29.62 24.4 37.8l-0.03 0.05c-0.36 0.61-3.99 6.34-12.95 4.01c-3.44-0.9-8.3-6.65-10.8-13.09c-4.42-11.35-4.78-26.03-0.63-28.78z" />
			<path id="&lt;Path&gt;" class="s95" d="m1122.91 403.97c8.44 2.41 14.61 7.39 18.49 14.95c-7.29-8.18-13.9-13.09-19.82-14.72c0.08-0.14 0.52-0.21 1.33-0.23z" />
			<path id="&lt;Path&gt;" class="s95" d="m1063.86 390.6c-2.11-1.24-5.19-4.17-9.29-5.48c-2.74-0.87-5.42-1.54-8.04-1.99c4.28 0.34 7.51 0.93 9.71 1.75c3.3 1.24 6.91 3.39 7.78 4.83c0.58 0.96 0.52 1.26-0.15 0.9z" />
			<path id="&lt;Path&gt;" class="s95" d="m1079.13 356.34c-0.45-2.68-7.65-14.17-9.3-16.7c-1.65-2.53 7.18 8.14 10.26 16.21c-0.34 2.11-0.66 2.28-0.96 0.49z" />
			<path id="&lt;Path&gt;" class="s95" d="m1079.17 311.77c-4.01-6.65-9.58-16.33-11.91-19.7c5.42 6.62 11.95 17.58 12.67 19.26c0.48 1.12 0.23 1.27-0.76 0.44z" />
			<path id="&lt;Path&gt;" class="s95" d="m1116.95 321.59c0.12-1.26 1.94-4.21 8.81-5.49c-3.58 1.26-7.83 3.86-8.33 6.71c-0.4-0.07-0.56-0.47-0.48-1.22z" />
			<path id="&lt;Path&gt;" class="s95" d="m1132.38 353.18c2.51-1.63 6.7-2.8 12.55-3.51c-2.26 0.67-8.3 1.88-12.8 3.96c-0.97 0.45-0.88 0.3 0.25-0.45z" />
		</g>
	</g>
</svg>